<svg xmlns:xlink="http://www.w3.org/1999/xlink" xmlns="http://www.w3.org/2000/svg" width="536" height="296"
     viewBox="0 0 536 296" fill="none">
    <rect x="0" y="0" width="0" height="0" fill="rgba(249, 249, 249, 1)"/>
    <g opacity="1" transform="translate(0 0)  rotate(0)">

        <g mask="url(#bg-mask-0)">
            <path id="直线 3" style="fill:#248182; opacity:1;"
                  d="M116.879,145.256l10.53,-0.89l0.242,2.872l-10.53,0.89zM136.981,143.557l10.531,-0.89l0.242,2.872l-10.53,0.89zM157.084,141.858l10.53,-0.891l0.243,2.872l-10.53,0.89zM177.187,140.158l10.53,-0.89l0.243,2.872l-10.53,0.89zM197.29,138.459l10.53,-0.89l0.243,2.872l-10.53,0.89zM217.393,136.76l10.53,-0.89l0.243,2.871l-10.53,0.891zM237.496,135.06l10.53,-0.89l0.242,2.872l-10.53,0.89zM257.598,133.361l10.531,-0.89l0.242,2.872l-10.53,0.89zM277.701,131.662l10.53,-0.89l0.243,2.871l-10.53,0.891zM297.804,129.962l10.53,-0.89l0.243,2.872l-10.53,0.89zM317.907,128.263l10.53,-0.89l0.243,2.872l-10.53,0.89zM338.01,126.564l10.53,-0.89l0.243,2.872l-10.53,0.89zM358.113,124.864l10.53,-0.89l0.242,2.872l-10.53,0.89zM378.215,123.165l10.531,-0.89l0.242,2.872l-10.53,0.89z"></path>
            <path id="路径 1" style="fill:#248182; opacity:1;"
                  d="M182.486,114.482M182.486,114.482c3.116,0 6.21,0.98367 9.282,2.951c6.11267,3.91533 9.169,10.67533 9.169,20.28h-2.882c0,-8.554 -2.61367,-14.505 -7.841,-17.853c-2.59867,-1.664 -5.17467,-2.496 -7.728,-2.496z"></path>
            <path id="路径 2" style="fill:#248182; opacity:1;"
                  d="M175.669,140.867M175.669,140.867c1.528,2.76533 2.34867,5.866 2.462,9.302c0.23267,7.03133 -3.20733,12.28767 -10.32,15.769l-1.267,-2.588c5.996,-2.93533 8.89833,-7.29733 8.707,-13.086c-0.098,-2.974 -0.79967,-5.64167 -2.105,-8.003z"></path>
            <path id="直线 1" style="fill:#248182; opacity:1;"
                  d="M118.054,145.405l214.317,-107.6927l1.294,2.5752l-214.317,107.6925z"></path>
            <g opacity="1" transform="translate(186.73822021484375 146.69216918945312)  rotate(0)">
                <text>
                    <tspan x="0" y="20.059245283018868" font-size="17.29245283018868" line-height="0" fill="#248182"
                           opacity="1" font-family="SourceHanSansCN-Bold" font-weight="Bold" letter-spacing="0">β
                    </tspan>
                </text>
            </g>
            <path id="路径 4" style="fill:#A584E3; opacity:1;"
                  d="M220.288,96.3725M220.288,96.3725c4.62067,7.619 8.08133,16.93983 10.382,27.9625c4.618,22.11933 1.14567,41.805 -10.417,59.057l-2.394,-1.605c11.11267,-16.58067 14.44267,-35.535 9.99,-56.863c-2.234,-10.70067 -5.57567,-19.71967 -10.025,-27.057z"></path>
            <g opacity="1" transform="translate(236.91561889648438 148.40170288085938)  rotate(0)">
                <text>
                    <tspan x="0" y="20.059245283018868" font-size="17.29245283018868" line-height="0" fill="#A584E3"
                           opacity="1" font-family="SourceHanSansCN-Bold" font-weight="Bold" letter-spacing="0">θ
                    </tspan>
                    <tspan x="0" y="45.09871698113207" font-size="17.29245283018868" line-height="0" fill="#A584E3"
                           opacity="1" font-family="SourceHanSansCN-Bold" font-weight="Bold"
                           letter-spacing="0"></tspan>
                </text>
            </g>
            <g opacity="1" transform="translate(204.59771728515625 109.08538818359375)  rotate(0)">
                <text>
                    <tspan x="0" y="20.059245283018868" font-size="17.29245283018868" line-height="0" fill="#248182"
                           opacity="1" font-family="SourceHanSansCN-Bold" font-weight="Bold" letter-spacing="0">α
                    </tspan>
                </text>
            </g>
            <path id="直线 2" style="fill:#248182; opacity:1;"
                  d="M117.483,145.335l259.393,92.307l-0.967,2.715l-259.392,-92.307z"></path>
            <path id="路径 3" style="fill:#248182; opacity:1;"
                  d="M285.018,113.982M285.018,113.982c4.224,4.224 7.39367,9.012 9.509,14.364c4.39867,11.13133 1.11467,19.60667 -9.852,25.426l-1.35,-2.544c9.45,-5.014 12.291,-12.28867 8.523,-21.824c-1.968,-4.98133 -4.92333,-9.44333 -8.866,-13.386z"></path>
            <g opacity="1" transform="translate(254 80)  rotate(0)">
                <text>
                    <tspan x="0" y="20.0564" font-size="17.29" line-height="0" fill="#248182" opacity="1"
                           font-family="SourceHanSansCN-Bold" font-weight="Bold" letter-spacing="0">dihedral
                    </tspan>
                    <tspan x="71.83994999999999" y="20.0564" font-size="17.29" line-height="0" fill="#248182"
                           opacity="1" font-family="SourceHanSansCN-Bold" font-weight="Bold" letter-spacing="0">
                        angle
                    </tspan>
                    <tspan x="122.88002999999999" y="20.0564" font-size="17.29" line-height="0" fill="#248182"
                           opacity="1" font-family="SourceHanSansCN-Bold" font-weight="Bold" letter-spacing="0">δ
                    </tspan>
                </text>
            </g>
            <path id="箭头 1" style="fill:#248182; opacity:1;"
                  d="M299.59,123.556c-0.04533,-0.01333 -0.08967,-0.029 -0.133,-0.047c-0.044,-0.018 -0.087,-0.038 -0.129,-0.06c-0.04133,-0.022 -0.08167,-0.04567 -0.121,-0.071c-0.03933,-0.026 -0.07733,-0.054 -0.114,-0.084c-0.03667,-0.03 -0.07167,-0.06133 -0.105,-0.094c-0.034,-0.03333 -0.066,-0.068 -0.096,-0.104c-0.03,-0.03667 -0.05833,-0.07433 -0.085,-0.113c-0.026,-0.03933 -0.05033,-0.07967 -0.073,-0.121c-0.02267,-0.04133 -0.043,-0.084 -0.061,-0.128c-0.01867,-0.04333 -0.035,-0.08733 -0.049,-0.132c-0.01333,-0.04533 -0.025,-0.091 -0.035,-0.137c-0.00933,-0.04667 -0.01633,-0.09333 -0.021,-0.14c-0.00533,-0.04667 -0.008,-0.09367 -0.008,-0.141c0,-0.04733 0.002,-0.09433 0.006,-0.141c0.00467,-0.04733 0.01133,-0.094 0.02,-0.14c0.00867,-0.04667 0.02,-0.09233 0.034,-0.137l4.1,-13.804c0.01333,-0.04533 0.029,-0.09 0.047,-0.134c0.018,-0.04333 0.038,-0.086 0.06,-0.128c0.022,-0.04133 0.046,-0.08167 0.072,-0.121c0.026,-0.03933 0.05367,-0.07733 0.083,-0.114c0.03,-0.03667 0.06167,-0.072 0.095,-0.106c0.03267,-0.03333 0.06733,-0.065 0.104,-0.095c0.036,-0.03 0.07367,-0.05833 0.113,-0.085c0.03867,-0.026 0.079,-0.05033 0.121,-0.073c0.04133,-0.02267 0.08367,-0.043 0.127,-0.061c0.04333,-0.01867 0.08767,-0.035 0.133,-0.049c0.04467,-0.014 0.09033,-0.02567 0.137,-0.035c0.046,-0.00933 0.09233,-0.01633 0.139,-0.021c0.04733,-0.00533 0.09433,-0.008 0.141,-0.008c0.04733,-0.00067 0.09467,0.00133 0.142,0.006c0.04667,0.00467 0.093,0.01133 0.139,0.02c0.04667,0.00867 0.09267,0.01967 0.138,0.033c0.04533,0.014 0.08967,0.02967 0.133,0.047c0.044,0.018 0.08667,0.038 0.128,0.06c0.042,0.022 0.08267,0.046 0.122,0.072c0.03933,0.026 0.07733,0.05367 0.114,0.083c0.03667,0.03 0.07167,0.06167 0.105,0.095c0.03333,0.03267 0.065,0.06733 0.095,0.104c0.03067,0.036 0.059,0.07367 0.085,0.113c0.02667,0.03933 0.05133,0.07967 0.074,0.121c0.022,0.04133 0.04233,0.08367 0.061,0.127c0.018,0.04333 0.034,0.08767 0.048,0.133c0.014,0.04467 0.02567,0.09033 0.035,0.137c0.01,0.046 0.01733,0.09233 0.022,0.139c0.00467,0.04733 0.00733,0.09467 0.008,0.142c0,0.04667 -0.00233,0.09367 -0.007,0.141c-0.004,0.04667 -0.01033,0.09333 -0.019,0.14c-0.00933,0.046 -0.02067,0.09167 -0.034,0.137l-3.111,10.471l19.411,-10.519l1.372,2.532l-19.41,10.519l10.471,3.111c0.04533,0.01333 0.08967,0.029 0.133,0.047c0.044,0.01733 0.08667,0.037 0.128,0.059c0.042,0.022 0.08267,0.046 0.122,0.072c0.03933,0.026 0.07733,0.054 0.114,0.084c0.03667,0.02933 0.07167,0.06067 0.105,0.094c0.03333,0.03333 0.06533,0.068 0.096,0.104c0.03,0.03667 0.058,0.07433 0.084,0.113c0.02667,0.03933 0.05133,0.07967 0.074,0.121c0.02267,0.04133 0.043,0.084 0.061,0.128c0.018,0.04333 0.034,0.08733 0.048,0.132c0.014,0.04533 0.02567,0.091 0.035,0.137c0.01,0.04667 0.01733,0.09333 0.022,0.14c0.00467,0.04667 0.00733,0.09367 0.008,0.141c0,0.04733 -0.002,0.09433 -0.006,0.141c-0.00467,0.04733 -0.01133,0.094 -0.02,0.14c-0.00933,0.04667 -0.02067,0.09233 -0.034,0.137c-0.01333,0.04533 -0.029,0.09 -0.047,0.134c-0.01733,0.04333 -0.037,0.086 -0.059,0.128c-0.022,0.04133 -0.046,0.08167 -0.072,0.121c-0.026,0.03933 -0.054,0.07733 -0.084,0.114c-0.02933,0.03667 -0.06067,0.072 -0.094,0.106c-0.03333,0.03333 -0.068,0.065 -0.104,0.095c-0.03667,0.03 -0.07433,0.05833 -0.113,0.085c-0.03933,0.02667 -0.07967,0.051 -0.121,0.073c-0.04133,0.02267 -0.084,0.043 -0.128,0.061c-0.04333,0.01867 -0.08733,0.035 -0.132,0.049c-0.04533,0.014 -0.091,0.02567 -0.137,0.035c-0.046,0.00933 -0.09267,0.01667 -0.14,0.022c-0.04667,0.00467 -0.09367,0.007 -0.141,0.007c-0.04733,0.00067 -0.09433,-0.00133 -0.141,-0.006c-0.04733,-0.004 -0.094,-0.01067 -0.14,-0.02c-0.046,-0.00867 -0.09167,-0.01967 -0.137,-0.033z"></path>
        </g>
    </g>

</svg>