<svg xmlns="http://www.w3.org/2000/svg" xmlns:xlink="http://www.w3.org/1999/xlink" width="793.8736373388066" height="443" viewBox="0 0 793.8736373388066 443" fill="none"><rect x="0" y="0" width="0" height="0" fill="rgba(249, 249, 249, 1)" /><g opacity="1"  transform="translate(0 0)  rotate(0)"><rect fill="#000000" opacity="0" transform="translate(0 0)  rotate(NaN)" x="0" y="0" width="700" height="443" /><path  id="路径 1" style="fill:#248182; opacity:1;" d="M106.148,332.253h407.38v2.877l-2.796,-0.647l55.94,-243.0776l2.796,0.6468v2.8767h-408.81v-2.8767l2.799,0.6311l-54.51,243.0777l-2.799,-0.631zM102.562,338.006l55.8,-248.8304h414.712l-57.264,248.8304h-409.662z"></path><path  id="直线 1" style="fill:#248182; opacity:1;" d="M106.769,331.905l7.135,-8.988l4.494,3.567l-7.135,8.988zM117.471,318.423l7.135,-8.988l4.494,3.567l-7.135,8.988zM128.173,304.94l7.134,-8.988l4.494,3.568l-7.134,8.988zM138.874,291.458l7.135,-8.988l4.494,3.568l-7.135,8.988zM149.576,277.976l7.134,-8.988l4.494,3.568l-7.134,8.988zM160.278,264.494l7.134,-8.988l4.494,3.567l-7.134,8.988zM170.979,251.012l7.135,-8.988l4.494,3.567l-7.135,8.988zM181.681,237.53l7.134,-8.988l4.494,3.567l-7.134,8.988zM192.383,224.048l7.134,-8.988l4.494,3.567l-7.134,8.988zM203.084,210.566l7.135,-8.988l4.494,3.567l-7.135,8.988zM213.786,197.084l4.868,-6.134l4.494,3.568l-4.868,6.133z"></path><path  id="直线 2" style="fill:#248182; opacity:1;" d="M220.902,189.865h11.475v5.738h-11.475zM238.115,189.865h11.475v5.738h-11.475zM255.328,189.865h11.475v5.738h-11.475zM272.541,189.865h11.475v5.738h-11.475zM289.754,189.865h11.475v5.738h-11.475zM306.967,189.865h11.476v5.738h-11.476zM324.18,189.865h11.476v5.738h-11.476zM341.393,189.865h11.476v5.738h-11.476zM358.607,189.865h11.475v5.738h-11.475zM375.82,189.865h11.475v5.738h-11.475zM393.033,189.865h11.475v5.738h-11.475zM410.246,189.865h11.475v5.738h-11.475zM427.459,189.865h11.475v5.738h-11.475zM444.672,189.865h11.476v5.738h-11.476zM461.885,189.865h11.476v5.738h-11.476zM479.098,189.865h11.476v5.738h-11.476zM496.311,189.865h11.476v5.738h-11.476zM513.525,189.865h11.475v5.738h-11.475zM530.738,189.865h11.475v5.738h-11.475z"></path><path  id="直线 3" style="fill:#248182; opacity:1;" d="M547.951,189.865h68.852v5.738h-68.852z"></path><path  id="直线 4" style="fill:#248182; opacity:1;" d="M619.134,194.407l-103.279,143.831l-4.66,-3.347l103.278,-143.831z"></path><path  id="直线 5" style="fill:#248182; opacity:1;" d="M355.994,160.95c1.132,-1.109 2.948,-1.089 4.056,0.043c1.108,1.133 1.089,2.949 -0.043,4.057l-174.394,170.688l-4.013,-4.1l174.393,-170.688z"></path><path  id="路径 2" style="fill:#248182; opacity:1;" d="M228.074,288.382M228.074,288.382c5.05267,0 10.04767,2.01967 14.985,6.059c9.61067,7.86333 14.416,21.42633 14.416,40.689h-4.303c0,-17.89667 -4.27767,-30.34533 -12.833,-37.346c-4.146,-3.392 -8.23433,-5.088 -12.265,-5.088z"></path><g opacity="1" transform="translate(263.9345703125 290.53900146484375)  rotate(0)"><a xlink:href="https://" xlink:title="跳转" target="_blank"><text><tspan x="0" y="39.9344262295082" font-size="34.42622950819673" line-height="0" fill="#248182" opacity="1" font-family="SourceHanSansCN-Regular" font-weight="Regular" letter-spacing="0" >α</tspan></text></a></g><path  id="路径 3" style="fill:#A584E3; opacity:1;" d="M464.859,268.701M464.859,268.701c3.876,-3.052 7.81633,-4.147 11.821,-3.285c7.82667,1.68467 11.74,11.49733 11.74,29.438h-4.303c0,-15.616 -2.78,-24.02233 -8.34,-25.219c-2.68867,-0.57867 -5.442,0.24133 -8.26,2.46z"></path><g opacity="1" transform="translate(487.7049560546875 230.12991333007812)  rotate(0)"><a xlink:href="https://" xlink:title="跳转" target="_blank"><text><tspan x="0" y="39.9344262295082" font-size="34.42622950819673" line-height="0" fill="#A584E3" opacity="1" font-family="SourceHanSansCN-Regular" font-weight="Regular" letter-spacing="0" >δ</tspan></text></a></g><path  id="直线 6" style="fill:#248182; opacity:1;" d="M182.996,331.625l175,-51.779l1.221,4.126l-175,51.779z"></path><path  id="路径 4" style="fill:#248182; opacity:1;" d="M249.59,268.245M249.59,268.245c5.41467,0 10.80167,1.59933 16.161,4.798c10.74067,6.41133 16.111,17.517 16.111,33.317h-4.303c0,-14.16467 -4.66967,-24.03433 -14.009,-29.609c-4.68133,-2.794 -9.33467,-4.191 -13.96,-4.191z"></path><g opacity="1" transform="translate(281.14752197265625 247.38986206054688)  rotate(0)"><a xlink:href="https://" xlink:title="跳转" target="_blank"><text><tspan x="0" y="29.950819672131157" font-size="25.81967213114755" line-height="0" fill="#248182" opacity="1" font-family="SourceHanSansCN-Regular" font-weight="Regular" letter-spacing="0" >β</tspan></text></a></g><path  id="直线 7" style="fill:#248182; opacity:1;" d="M357,274.252v-112.252h4v112.252c3.504,0.902 6.065,4.112 5.999,7.888c-0.077,4.417 -3.721,7.936 -8.139,7.859c-4.417,-0.077 -7.936,-3.721 -7.859,-8.139c0.064,-3.678 2.601,-6.733 5.999,-7.608z"></path><g opacity="1" transform="translate(173 109)  rotate(0)"><a xlink:href="https://" xlink:title="跳转" target="_blank"><text><tspan x="0" y="34.8" font-size="30" line-height="0" fill="#248182" opacity="1" font-family="SourceHanSansCN-Regular" font-weight="Regular" letter-spacing="0" >A</tspan></text></a></g><g opacity="1" transform="translate(554 203)  rotate(0)"><a xlink:href="https://" xlink:title="跳转" target="_blank"><text><tspan x="0" y="34.8" font-size="30" line-height="0" fill="#248182" opacity="1" font-family="SourceHanSansCN-Regular" font-weight="Regular" letter-spacing="0" >B</tspan></text></a></g><g opacity="1" transform="translate(462 334.3197021484375)  rotate(-0.35223961472480136)"><a xlink:href="https://" xlink:title="跳转" target="_blank"><text><tspan x="0" y="34.8" font-size="30" line-height="0" fill="#248182" opacity="1" font-family="SourceHanSansCN-Regular" font-weight="Regular" letter-spacing="0" >l</tspan></text></a></g><path  id="直线 8" style="fill:#248182; opacity:1;" d="M361.233,283.854l-36,52l-2.466,-1.708l36,-52z"></path><path  id="路径 6" style="fill:#248182; opacity:1;" d="M341.7,333.9l12,-16l0.8,0.6v1h-8.65v-1l0.979,0.205l-3.35,16l-0.979,-0.205zM343.3,335.1l-1.779,-0.805l3.517,-16.795h11.462zM336,317.5h9.85v2h-9.85zM344.871,318.295l1.15,-5.5l0.979,0.205v1h-17.5v-2h18.731l-1.402,6.705z"></path><g opacity="1" transform="translate(165 335)  rotate(0)"><a xlink:href="https://" xlink:title="跳转" target="_blank"><text><tspan x="0" y="34.8" font-size="30" line-height="0" fill="#248182" opacity="1" font-family="SourceHanSansCN-Regular" font-weight="Regular" letter-spacing="0" >H</tspan></text></a></g><g opacity="1" transform="translate(372 270)  rotate(0)"><a xlink:href="https://" xlink:title="跳转" target="_blank"><text><tspan x="0" y="34.8" font-size="30" line-height="0" fill="#248182" opacity="1" font-family="SourceHanSansCN-Regular" font-weight="Regular" letter-spacing="0" >O</tspan></text></a></g><g opacity="1" transform="translate(359 118)  rotate(0)"><a xlink:href="https://" xlink:title="跳转" target="_blank"><text><tspan x="0" y="34.8" font-size="30" line-height="0" fill="#248182" opacity="1" font-family="SourceHanSansCN-Regular" font-weight="Regular" letter-spacing="0" >D</tspan></text></a></g><path  id="路径 5" style="fill:#248182; opacity:1;" d="M358.974,254.923l-22.5,7.5l-0.474,-1.423h1.5v26.5h-3v-27.581l23.526,-7.842z"></path><path  id="直线 9" style="fill:#248182; opacity:1;" d="M357.038,161.614c0.213,-1.084 1.264,-1.789 2.348,-1.576c1.084,0.213 1.789,1.264 1.576,2.348l-34,173l-3.924,-0.772l33.999,-172.999z"></path><g opacity="1" transform="translate(316 334)  rotate(0)"><a xlink:href="https://" xlink:title="跳转" target="_blank"><text><tspan x="0" y="34.8" font-size="30" line-height="0" fill="#248182" opacity="1" font-family="SourceHanSansCN-Regular" font-weight="Regular" letter-spacing="0" >E</tspan></text></a></g></g></svg>