<svg xmlns="http://www.w3.org/2000/svg" xmlns:xlink="http://www.w3.org/1999/xlink" width="503" height="553" viewBox="0 0 503 553" fill="none"><rect x="0" y="0" width="0" height="0" fill="rgba(249, 249, 249, 1)" /><g opacity="1"  transform="translate(0 0)  rotate(0)"><rect fill="#FFFFFF" opacity="0" transform="translate(0 0)  rotate(NaN)" x="0" y="0" width="503" height="553" /><mask id="bg-mask-0" fill="white"><use transform="translate(0 0)  rotate(NaN)" xlink:href="#path_0"></use></mask><g mask="url(#bg-mask-0)" ><path  id="箭头 1" style="fill:#248182; opacity:1;" d="M442.285,326.436c0.09533,0.02333 0.18767,0.05633 0.277,0.099c0.08867,0.042 0.17267,0.09233 0.252,0.151c0.07933,0.05867 0.152,0.12433 0.218,0.197l10.079,11.109c0.557,0.614 0.51,1.562 -0.103,2.119l-11.109,10.079c-0.07333,0.066 -0.152,0.12433 -0.236,0.175c-0.08467,0.05067 -0.17333,0.09267 -0.266,0.126c-0.09267,0.03333 -0.18767,0.05733 -0.285,0.072c-0.09733,0.01467 -0.19533,0.01933 -0.294,0.014c-0.098,-0.00467 -0.195,-0.019 -0.291,-0.043c-0.09533,-0.024 -0.18767,-0.057 -0.277,-0.099c-0.08867,-0.042 -0.17267,-0.09233 -0.252,-0.151c-0.07933,-0.05867 -0.152,-0.12433 -0.218,-0.197c-0.066,-0.07267 -0.12433,-0.15133 -0.175,-0.236c-0.05067,-0.08467 -0.09267,-0.17333 -0.126,-0.266c-0.03333,-0.09267 -0.05733,-0.18767 -0.072,-0.285c-0.014,-0.09733 -0.01867,-0.19533 -0.014,-0.294c0.00467,-0.098 0.019,-0.195 0.043,-0.291c0.024,-0.09533 0.057,-0.18767 0.099,-0.277c0.042,-0.08867 0.09233,-0.17267 0.151,-0.252c0.05867,-0.07867 0.12433,-0.15133 0.197,-0.218l8.427,-7.646l-140.383,-6.824l0.146,-2.996l140.383,6.824l-7.646,-8.427c-0.066,-0.07333 -0.12433,-0.152 -0.175,-0.236c-0.05067,-0.08467 -0.09267,-0.17333 -0.126,-0.266c-0.03333,-0.09267 -0.05733,-0.18767 -0.072,-0.285c-0.014,-0.09733 -0.01867,-0.19533 -0.014,-0.294c0.00467,-0.098 0.019,-0.195 0.043,-0.291c0.02333,-0.09533 0.05633,-0.18767 0.099,-0.277c0.042,-0.08867 0.09233,-0.17267 0.151,-0.252c0.05867,-0.07933 0.12433,-0.152 0.197,-0.218c0.07267,-0.066 0.15133,-0.12433 0.236,-0.175c0.08467,-0.05067 0.17333,-0.09267 0.266,-0.126c0.09267,-0.03333 0.18767,-0.05733 0.285,-0.072c0.09733,-0.01467 0.19533,-0.01933 0.294,-0.014c0.098,0.00467 0.195,0.019 0.291,0.043z"></path><path  id="直线 2" style="fill:#248182; opacity:1;" d="M168.053,325.501l7.995,0.281l-0.106,2.999l-7.995,-0.282zM180.045,325.923l7.995,0.282l-0.105,2.998l-7.995,-0.282zM192.038,326.345l7.995,0.282l-0.106,2.998l-7.995,-0.281zM204.03,326.768l7.996,0.281l-0.106,2.998l-7.995,-0.281zM216.023,327.19l7.995,0.282l-0.105,2.998l-7.996,-0.282zM228.016,327.612l7.995,0.282l-0.106,2.998l-7.995,-0.282zM240.008,328.035l7.995,0.281l-0.105,2.998l-7.995,-0.281zM252.001,328.457l7.995,0.281l-0.106,2.999l-7.995,-0.282zM263.993,328.879l7.995,0.282l-0.105,2.998l-7.995,-0.282zM275.986,329.301l7.995,0.282l-0.106,2.998l-7.995,-0.281zM287.978,329.724l7.996,0.281l-0.106,2.998l-7.995,-0.281zM299.971,330.146l7.995,0.281l-0.105,2.999l-7.996,-0.282z"></path><path  id="箭头 2" style="fill:#248182; opacity:1;" d="M38.1054,482.496h-0.0001c-0.8264,0.058 -1.5434,-0.564 -1.6016,-1.391l-1.0537,-14.963c-0.0582,-0.826 0.5645,-1.543 1.3909,-1.601c0.8264,-0.058 1.5435,0.564 1.6017,1.391l0.7993,11.35l63.6251,-73.266l2.266,1.968l-63.626,73.265l11.3506,-0.799c0.8264,-0.058 1.5434,0.565 1.6016,1.391c0.0582,0.826 -0.5645,1.543 -1.3909,1.602z"></path><path  id="直线 1" style="fill:#248182; opacity:1;" d="M170.158,326.953l-5.083,6.178l-2.316,-1.906l5.083,-6.178zM162.534,336.22l-5.083,6.177l-2.317,-1.906l5.083,-6.177zM154.91,345.486l-5.083,6.178l-2.317,-1.906l5.083,-6.178zM147.285,354.753l-5.083,6.177l-2.316,-1.906l5.083,-6.177zM139.661,364.019l-5.083,6.178l-2.317,-1.906l5.083,-6.178zM132.036,373.286l-5.082,6.178l-2.317,-1.907l5.083,-6.177zM124.412,382.552l-5.083,6.178l-2.316,-1.906l5.082,-6.178zM116.788,391.819l-5.083,6.178l-2.317,-1.907l5.083,-6.177zM109.163,401.085l-4.004,4.868l-2.317,-1.906l4.005,-4.868z"></path><path  id="箭头 3" style="fill:#248182; opacity:1;" d="M167.939,60.9393c0.513,-0.5125 1.304,-0.5766 1.886,-0.1922c0.084,0.0549 0.162,0.119 0.236,0.1922l10.606,10.6066c0.586,0.5858 0.586,1.5356 0,2.1214c-0.586,0.5858 -1.535,0.5858 -2.121,0l-8.046,-8.046v158.3787h-3v-158.3787l-8.046,8.046c-0.586,0.5858 -1.535,0.5858 -2.121,0c-0.586,-0.5858 -0.586,-1.5356 0,-2.1214z"></path><path  id="直线 3" style="fill:#248182; opacity:1;" d="M170.5,220v8h-3v-8zM170.5,232v8h-3v-8zM170.5,244v8h-3v-8zM170.5,256v8h-3v-8zM170.5,268v8h-3v-8zM170.5,280v8h-3v-8zM170.5,292v8h-3v-8zM170.5,304v8h-3v-8zM170.5,316v8h-3v-8z"></path><path  id="路径 1" style="fill:#248182; opacity:1;" d="M169.132,220.36M169.132,220.36c-4.032,1.87333 -8.93133,4.954 -14.698,9.242c-11.57067,8.60333 -21.62,18.921 -30.148,30.953c-27.3242,38.55133 -34.26553,87.08767 -20.824,145.609l-1.462,0.336l0.435,-1.436l-0.435,1.436l0.435,-1.436c6.33267,1.91867 14.54667,3.70067 24.642,5.346c20.20667,3.29333 39.66467,4.24133 58.374,2.844c26.13533,-1.952 48.90733,-8.435 68.316,-19.449c24.22267,-13.746 42.51167,-34.221 54.867,-61.425l2.732,1.24c-12.624,27.79533 -31.33,48.72667 -56.118,62.794c-19.79933,11.236 -42.99067,17.84667 -69.574,19.832c-18.946,1.41533 -38.639,0.457 -59.079,-2.875c-10.22667,-1.66667 -18.57,-3.47833 -25.03,-5.435l-0.832,-0.253l0.832,0.253l-0.832,-0.253l-0.195,-0.847c-13.642,-59.39533 -6.54167,-108.734 21.301,-148.016c8.71133,-12.29067 18.97967,-22.83233 30.805,-31.625c5.93133,-4.41067 11.006,-7.59567 15.224,-9.555z"></path><path  id="路径 2" style="fill:#248182; opacity:1;" d="M308.519,331.237M308.519,331.237c-0.73667,-4.602 -2.29933,-10.378 -4.688,-17.328c-4.786,-13.92533 -11.30367,-26.68867 -19.553,-38.29c-26.368,-37.07933 -65.12733,-55.619 -116.278,-55.619v-3c52.18267,0 91.75667,18.96033 118.722,56.881c8.41733,11.836 15.06633,24.85367 19.947,39.053c2.44467,7.11333 4.04867,13.05633 4.812,17.829z"></path><path  id="路径 3" style="fill:#248182; opacity:1;" d="M169.413,217.496M169.413,217.496c5.60267,15.72133 11.20233,35.71433 16.799,59.979c11.192,48.528 16.788,94.203 16.788,137.025h-3c0,-42.59467 -5.57067,-88.04467 -16.712,-136.35c-5.57,-24.152 -11.137,-44.034 -16.701,-59.646z"></path><path  id="路径 5" style="fill:#A584E3; opacity:1;" d="M187.383,296.713M187.383,296.713c5.02533,-3.93667 10.614,-7.87167 16.766,-11.805c12.414,-7.93867 21.531,-11.908 27.351,-11.908v2c-5.43,0 -14.188,3.864 -26.274,11.592c-6.098,3.9 -11.63433,7.79833 -16.609,11.695z"></path><path  id="路径 6" style="fill:#A584E3; opacity:1;" d="M196.184,339.051M196.184,339.051c7.22467,-2.408 15.01267,-5.378 23.364,-8.91c16.63,-7.03267 27.71167,-13.31533 33.245,-18.848l1.414,1.414c-5.71667,5.71733 -17.01,12.143 -33.88,19.277c-8.39933,3.55133 -16.23633,6.53967 -23.511,8.965z"></path><path  id="路径 4" style="fill:#248182; opacity:1;" d="M168.173,218.66M168.173,218.66c4.29133,2.156 9.63733,5.441 16.038,9.855c12.77533,8.81067 24.486,18.88 35.132,30.208c34.10467,36.28867 51.157,78.381 51.157,126.277h-3c0,-47.104 -16.781,-88.51167 -50.343,-124.223c-10.5,-11.172 -22.04967,-21.10267 -34.649,-29.792c-6.28667,-4.336 -11.51367,-7.551 -15.681,-9.645z"></path><path  id="直线 4" style="fill:#A584E3; opacity:1;" d="M168.591,324.712l1.151,-1.635l0.818,0.575l-1.151,1.636zM170.893,321.441l1.151,-1.636l0.818,0.576l-1.151,1.636zM173.195,318.17l1.151,-1.636l0.818,0.576l-1.151,1.635zM175.497,314.899l1.151,-1.636l0.818,0.575l-1.151,1.636zM177.799,311.627l1.151,-1.635l0.818,0.575l-1.151,1.636zM180.101,308.356l1.151,-1.635l0.818,0.575l-1.151,1.636zM182.403,305.085l1.151,-1.636l0.818,0.576l-1.151,1.635zM184.705,301.814l1.151,-1.636l0.818,0.576l-1.151,1.635zM187.007,298.542l0.584,-0.83l0.818,0.576l-0.584,0.83z"></path><path  id="直线 5" style="fill:#A584E3; opacity:1;" d="M169.211,326.547l1.814,0.842l-0.422,0.907l-1.814,-0.843zM172.839,328.231l1.814,0.842l-0.422,0.907l-1.814,-0.842zM176.467,329.915l1.814,0.843l-0.421,0.907l-1.814,-0.843zM180.095,331.6l1.814,0.842l-0.421,0.907l-1.814,-0.842zM183.723,333.284l1.814,0.842l-0.421,0.908l-1.814,-0.843zM187.351,334.969l1.814,0.842l-0.421,0.907l-1.814,-0.842zM190.979,336.653l1.814,0.842l-0.421,0.907l-1.814,-0.842zM194.607,338.338l1.814,0.842l-0.421,0.907l-1.814,-0.842z"></path><path  id="直线 6" style="fill:#A584E3; opacity:1;" d="M168.673,326.622l1.511,-1.31l0.655,0.756l-1.512,1.31zM171.695,324.002l1.512,-1.309l0.655,0.755l-1.512,1.31zM174.718,321.383l1.511,-1.31l0.655,0.756l-1.511,1.309zM177.741,318.763l1.511,-1.31l0.655,0.756l-1.511,1.31zM180.764,316.143l1.511,-1.31l0.655,0.756l-1.512,1.31zM183.786,313.524l1.512,-1.31l0.655,0.755l-1.512,1.31zM186.809,310.904l1.511,-1.31l0.655,0.756l-1.511,1.31zM189.832,308.284l1.511,-1.31l0.655,0.756l-1.511,1.31zM192.855,305.664l1.511,-1.309l0.655,0.755l-1.511,1.31zM195.877,303.045l1.512,-1.31l0.655,0.755l-1.512,1.31zM198.9,300.425l1.511,-1.31l0.655,0.756l-1.511,1.31zM201.923,297.805l1.511,-1.31l0.655,0.756l-1.511,1.31zM204.946,295.185l1.511,-1.309l0.655,0.755l-1.511,1.31zM207.968,292.566l1.512,-1.31l0.655,0.756l-1.512,1.309zM210.991,289.946l1.512,-1.31l0.654,0.756l-1.511,1.31zM214.014,287.326l1.511,-1.31l0.655,0.756l-1.511,1.31zM217.037,284.707l1.511,-1.31l0.655,0.755l-1.511,1.31zM220.059,282.087l1.512,-1.31l0.655,0.756l-1.512,1.31zM223.082,279.467l1.512,-1.31l0.654,0.756l-1.511,1.31zM226.105,276.847l1.511,-1.309l0.655,0.755l-1.511,1.31z"></path><path  id="直线 7" style="fill:#A584E3; opacity:1;" d="M168.913,326.508l1.97,-0.348l0.173,0.985l-1.969,0.347zM172.852,325.812l1.97,-0.347l0.174,0.985l-1.97,0.347zM176.791,325.117l1.97,-0.347l0.174,0.985l-1.97,0.347zM180.731,324.422l1.969,-0.347l0.174,0.984l-1.97,0.348zM184.67,323.727l1.969,-0.348l0.174,0.985l-1.97,0.348zM188.609,323.032l1.969,-0.348l0.174,0.985l-1.969,0.348zM192.548,322.337l1.969,-0.348l0.174,0.985l-1.969,0.348zM196.487,321.642l1.97,-0.348l0.173,0.985l-1.969,0.347zM200.426,320.946l1.97,-0.347l0.174,0.985l-1.97,0.347zM204.365,320.251l1.97,-0.347l0.174,0.985l-1.97,0.347zM208.304,319.556l1.97,-0.347l0.174,0.984l-1.97,0.348zM212.244,318.861l1.969,-0.348l0.174,0.985l-1.97,0.348zM216.183,318.166l1.969,-0.348l0.174,0.985l-1.969,0.348zM220.122,317.471l1.969,-0.348l0.174,0.985l-1.969,0.348zM224.061,316.776l1.97,-0.348l0.173,0.985l-1.969,0.347zM228,316.08l1.97,-0.347l0.173,0.985l-1.969,0.347zM231.939,315.385l1.97,-0.347l0.174,0.985l-1.97,0.347zM235.878,314.69l1.97,-0.347l0.174,0.984l-1.97,0.348zM239.818,313.995l1.969,-0.348l0.174,0.985l-1.97,0.348zM243.757,313.3l1.969,-0.348l0.174,0.985l-1.97,0.348zM247.696,312.605l1.969,-0.348l0.174,0.985l-1.969,0.348zM251.635,311.91l1.969,-0.348l0.174,0.985l-1.969,0.347z"></path><g opacity="1" transform="translate(24 489)  rotate(0)"><a xlink:href="https://" xlink:title="跳转" target="_blank"><text><tspan x="0" y="34.8" font-size="30" line-height="0" fill="#248182" opacity="1" font-family="SourceHanSansCN-Regular" font-weight="Regular" letter-spacing="0" >x</tspan></text></a></g><g opacity="1" transform="translate(461 326)  rotate(0)"><a xlink:href="https://" xlink:title="跳转" target="_blank"><text><tspan x="0" y="34.8" font-size="30" line-height="0" fill="#248182" opacity="1" font-family="SourceHanSansCN-Regular" font-weight="Regular" letter-spacing="0"  >y</tspan><tspan x="0" y="78.24" font-size="30" line-height="0" fill="#248182" opacity="1" font-family="SourceHanSansCN-Regular" font-weight="Regular" letter-spacing="0"  ></tspan><tspan x="0" y="121.67999999999999" font-size="30" line-height="0" fill="#248182" opacity="1" font-family="SourceHanSansCN-Regular" font-weight="Regular" letter-spacing="0" ></tspan></text></a></g><g opacity="1" transform="translate(160 17)  rotate(0)"><a xlink:href="https://" xlink:title="跳转" target="_blank"><text><tspan x="0" y="34.8" font-size="30" line-height="0" fill="#248182" opacity="1" font-family="SourceHanSansCN-Regular" font-weight="Regular" letter-spacing="0" >z</tspan></text></a></g><path  id="直线 8" style="fill:#248182; opacity:1;" d="M169.932,329.638l33,85l-1.864,0.724l-33,-85z"></path><path  id="直线 9" style="fill:#248182; opacity:1;" d="M168.491,327.129l101,57l-0.983,1.742l-100.999,-57z"></path><g opacity="1" transform="translate(222 405)  rotate(0)"><a xlink:href="https://" xlink:title="跳转" target="_blank"><text><tspan x="0" y="23.2" font-size="20" line-height="0" fill="#248182" opacity="1" font-family="SourceHanSansCN-Regular" font-weight="Regular" letter-spacing="0" >dφ</tspan></text></a></g><g opacity="1" transform="translate(247 271)  rotate(0)"><a xlink:href="https://" xlink:title="跳转" target="_blank"><text><tspan x="0" y="23.2" font-size="20" line-height="0" fill="#248182" opacity="1" font-family="SourceHanSansCN-Regular" font-weight="Regular" letter-spacing="0" >dδ</tspan></text></a></g><g opacity="1" transform="translate(229 245)  rotate(0)"><a xlink:href="https://" xlink:title="跳转" target="_blank"><text><tspan x="0" y="17.4" font-size="15" line-height="0" fill="#248182" opacity="1" font-family="SourceHanSansCN-Regular" font-weight="Regular" letter-spacing="0" >sinθ</tspan></text></a></g><path  id="直线 10" style="fill:#248182; opacity:1;" d="M187.085,296.404l-19,-43l1.83,-0.808l19,43z"></path><path  id="直线 11" style="fill:#248182; opacity:1;" d="M168.326,251.054l3.782,1.303l-0.651,1.891l-3.783,-1.302zM173.999,253.008l3.782,1.302l-0.651,1.891l-3.782,-1.302zM179.672,254.961l3.782,1.302l-0.651,1.891l-3.782,-1.302zM185.345,256.914l3.782,1.302l-0.651,1.891l-3.782,-1.302zM191.018,258.867l3.783,1.302l-0.651,1.891l-3.783,-1.302zM196.692,260.82l3.782,1.302l-0.651,1.891l-3.782,-1.302zM202.365,262.773l3.782,1.302l-0.651,1.891l-3.782,-1.302zM208.038,264.726l3.782,1.302l-0.651,1.891l-3.782,-1.302zM213.711,266.679l3.782,1.302l-0.651,1.891l-3.782,-1.302zM219.385,268.632l3.782,1.302l-0.651,1.891l-3.782,-1.302zM225.058,270.585l3.782,1.302l-0.651,1.891l-3.782,-1.302z"></path><g opacity="1" transform="translate(222 301)  rotate(0)"><a xlink:href="https://" xlink:title="跳转" target="_blank"><text><tspan x="0" y="17.4" font-size="15" line-height="0" fill="#248182" opacity="1" font-family="SourceHanSansCN-Regular" font-weight="Regular" letter-spacing="0" >dθ</tspan></text></a></g><path  id="路径 7" style="fill:#248182; opacity:1;" d="M184.272,367.526M184.272,367.526c3.86667,-0.90467 7.943,-2.22233 12.229,-3.953c8.43267,-3.406 13.63433,-7.07933 15.605,-11.02l1.788,0.894c-2.196,4.39267 -7.74433,8.386 -16.645,11.98c-4.38067,1.76933 -8.55433,3.11833 -12.521,4.047z"></path></g></g><defs><rect id="path_0" x="0" y="0" width="503" height="553" /></defs></svg>