<svg xmlns:xlink="http://www.w3.org/1999/xlink" xmlns="http://www.w3.org/2000/svg" width="536" height="296"
     viewBox="0 0 536 296" fill="none">
    <g opacity="1" transform="translate(0 0)  rotate(0)">
        <g>
            <path id="直线 3" style="fill:#248182; opacity:1;"
                  d="M116.879,145.256l10.53,-0.89l0.242,2.872l-10.53,0.89zM136.981,143.557l10.531,-0.89l0.242,2.872l-10.53,0.89zM157.084,141.858l10.53,-0.891l0.243,2.872l-10.53,0.89zM177.187,140.158l10.53,-0.89l0.243,2.872l-10.53,0.89zM197.29,138.459l10.53,-0.89l0.243,2.872l-10.53,0.89zM217.393,136.76l10.53,-0.89l0.243,2.871l-10.53,0.891zM237.496,135.06l10.53,-0.89l0.242,2.872l-10.53,0.89zM257.598,133.361l10.531,-0.89l0.242,2.872l-10.53,0.89zM277.701,131.662l10.53,-0.89l0.243,2.871l-10.53,0.891zM297.804,129.962l10.53,-0.89l0.243,2.872l-10.53,0.89zM317.907,128.263l10.53,-0.89l0.243,2.872l-10.53,0.89zM338.01,126.564l10.53,-0.89l0.243,2.872l-10.53,0.89zM358.113,124.864l10.53,-0.89l0.242,2.872l-10.53,0.89zM378.215,123.165l10.531,-0.89l0.242,2.872l-10.53,0.89z"></path>
            <path id="路径 1" style="fill:#248182; opacity:1;"
                  d="M182.486,114.482M182.486,114.482c3.116,0 6.21,0.98367 9.282,2.951c6.11267,3.91533 9.169,10.67533 9.169,20.28h-2.882c0,-8.554 -2.61367,-14.505 -7.841,-17.853c-2.59867,-1.664 -5.17467,-2.496 -7.728,-2.496z"></path>
            <path id="路径 2" style="fill:#248182; opacity:1;"
                  d="M175.669,140.867M175.669,140.867c1.528,2.76533 2.34867,5.866 2.462,9.302c0.23267,7.03133 -3.20733,12.28767 -10.32,15.769l-1.267,-2.588c5.996,-2.93533 8.89833,-7.29733 8.707,-13.086c-0.098,-2.974 -0.79967,-5.64167 -2.105,-8.003z"></path>
            <path id="直线 1" style="fill:#248182; opacity:1;"
                  d="M118.054,145.405l214.317,-107.6925l1.294,2.5752l-214.317,107.6923z"></path>
            <g opacity="1" transform="translate(186.73822021484375 146.69216918945312)  rotate(0)">
                <text>
                    <tspan x="0" y="20.059245283018868" font-size="17.29245283018868" line-height="0"
                           fill="#248182"
                           opacity="1" font-family="SourceHanSansCN-Bold" font-weight="Bold" letter-spacing="0">β
                    </tspan>
                </text>

            </g>

            <path id="路径 3" style="fill:#248182; opacity:1;"
                  d="M260.23,118.799l16.399,4.124v22.483h-2.882v-21.36h1.441l-0.351,1.398l-15.31,-3.85z"></path>
            <path id="路径 4" style="fill:#A584E3; opacity:1;"
                  d="M220.288,96.3725M220.288,96.3725c4.62067,7.619 8.08133,16.93983 10.382,27.9625c4.618,22.11933 1.14567,41.805 -10.417,59.057l-2.394,-1.605c11.11267,-16.58067 14.44267,-35.535 9.99,-56.863c-2.234,-10.70067 -5.57567,-19.71967 -10.025,-27.057z"></path>
            <g opacity="1" transform="translate(236.91561889648438 148.40170288085938)  rotate(0)">
                <text>
                    <tspan x="0" y="20.059245283018868" font-size="17.29245283018868" line-height="0" fill="#A584E3"
                           opacity="1" font-family="SourceHanSansCN-Bold" font-weight="Bold" letter-spacing="0">θ
                    </tspan>
                    <tspan x="0" y="45.09871698113207" font-size="17.29245283018868" line-height="0" fill="#A584E3"
                           opacity="1" font-family="SourceHanSansCN-Bold" font-weight="Bold"
                           letter-spacing="0"></tspan>
                </text>

            </g>
            <g opacity="1" transform="translate(204.59771728515625 109.08538818359375)  rotate(0)">
                <text>
                    <tspan x="0" y="20.059245283018868" font-size="17.29245283018868" line-height="0"
                           fill="#248182"
                           opacity="1" font-family="SourceHanSansCN-Bold" font-weight="Bold" letter-spacing="0">α
                    </tspan>
                </text>

            </g>
            <path id="直线 2" style="fill:#248182; opacity:1;"
                  d="M117.483,145.335l259.392,92.307l-0.966,2.715l-259.392,-92.307z"></path>
        </g>
    </g>
</svg>