<svg xmlns="http://www.w3.org/2000/svg" xmlns:xlink="http://www.w3.org/1999/xlink" width="793.8736373388066" height="443" viewBox="0 0 793.8736373388066 443" fill="none"><rect x="0" y="0" width="0" height="0" fill="rgba(249, 249, 249, 1)" /><g opacity="1"  transform="translate(0 0)  rotate(0)"><rect fill="#000000" opacity="0" transform="translate(0 0)  rotate(NaN)" x="0" y="0" width="700" height="443" /><path  id="路径 1" style="fill:#248182; opacity:1;" d="M106.148,332.253h407.38v2.877l-2.796,-0.647l55.94,-243.0776l2.796,0.6468v2.8767h-408.81v-2.8767l2.799,0.6311l-54.51,243.0777l-2.799,-0.631zM102.562,338.006l55.8,-248.8304h414.712l-57.264,248.8304h-409.662z"></path><path  id="直线 1" style="fill:#248182; opacity:1;" d="M106.769,331.905l7.135,-8.988l4.494,3.567l-7.135,8.988zM117.471,318.423l7.135,-8.988l4.494,3.567l-7.135,8.988zM128.173,304.94l7.134,-8.988l4.494,3.568l-7.134,8.988zM138.874,291.458l7.135,-8.988l4.494,3.568l-7.135,8.988zM149.576,277.976l7.134,-8.988l4.494,3.568l-7.134,8.988zM160.278,264.494l7.134,-8.988l4.494,3.567l-7.134,8.988zM170.979,251.012l7.135,-8.988l4.494,3.567l-7.135,8.988zM181.681,237.53l7.134,-8.988l4.494,3.567l-7.134,8.988zM192.383,224.048l7.134,-8.988l4.494,3.567l-7.134,8.988zM203.084,210.566l7.135,-8.988l4.494,3.567l-7.135,8.988zM213.786,197.084l4.868,-6.134l4.494,3.568l-4.868,6.133z"></path><path  id="直线 2" style="fill:#248182; opacity:1;" d="M220.902,189.865h11.475v5.738h-11.475zM238.115,189.865h11.475v5.738h-11.475zM255.328,189.865h11.475v5.738h-11.475zM272.541,189.865h11.475v5.738h-11.475zM289.754,189.865h11.475v5.738h-11.475zM306.967,189.865h11.476v5.738h-11.476zM324.18,189.865h11.476v5.738h-11.476zM341.393,189.865h11.476v5.738h-11.476zM358.607,189.865h11.475v5.738h-11.475zM375.82,189.865h11.475v5.738h-11.475zM393.033,189.865h11.475v5.738h-11.475zM410.246,189.865h11.475v5.738h-11.475zM427.459,189.865h11.475v5.738h-11.475zM444.672,189.865h11.476v5.738h-11.476zM461.885,189.865h11.476v5.738h-11.476zM479.098,189.865h11.476v5.738h-11.476zM496.311,189.865h11.476v5.738h-11.476zM513.525,189.865h11.475v5.738h-11.475zM530.738,189.865h11.475v5.738h-11.475z"></path><path  id="直线 3" style="fill:#248182; opacity:1;" d="M547.951,189.865h68.852v5.738h-68.852z"></path><path  id="直线 4" style="fill:#248182; opacity:1;" d="M619.134,194.407l-103.279,143.831l-4.66,-3.347l103.278,-143.831z"></path><path  id="直线 5" style="fill:#248182; opacity:1;" d="M181.609,331.629l175,-169.721l3.995,4.119l-175,169.721z"></path><path  id="路径 2" style="fill:#248182; opacity:1;" d="M228.074,288.382M228.074,288.382c5.05267,0 10.04767,2.01967 14.985,6.059c9.61067,7.86333 14.416,21.42633 14.416,40.689h-4.303c0,-17.89667 -4.27767,-30.34533 -12.833,-37.346c-4.146,-3.392 -8.23433,-5.088 -12.265,-5.088z"></path><g opacity="1" transform="translate(263.9345703125 290.53900146484375)  rotate(0)"><a xlink:href="https://" xlink:title="跳转" target="_blank"><text><tspan x="0" y="39.9344262295082" font-size="34.42622950819673" line-height="0" fill="#248182" opacity="1" font-family="SourceHanSansCN-Regular" font-weight="Regular" letter-spacing="0" >α</tspan></text></a></g><path  id="路径 3" style="fill:#A584E3; opacity:1;" d="M464.859,268.701M464.859,268.701c3.876,-3.052 7.81633,-4.147 11.821,-3.285c7.82667,1.68467 11.74,11.49733 11.74,29.438h-4.303c0,-15.616 -2.78,-24.02233 -8.34,-25.219c-2.68867,-0.57867 -5.442,0.24133 -8.26,2.46z"></path><g opacity="1" transform="translate(487.7049560546875 230.12991333007812)  rotate(0)"><a xlink:href="https://" xlink:title="跳转" target="_blank"><text><tspan x="0" y="39.9344262295082" font-size="34.42622950819673" line-height="0" fill="#A584E3" opacity="1" font-family="SourceHanSansCN-Regular" font-weight="Regular" letter-spacing="0" >δ</tspan></text></a></g><g opacity="1" transform="translate(306.9671936035156 350.9482116699219)  rotate(0)"><a xlink:href="https://" xlink:title="跳转" target="_blank"><text><tspan x="0" y="29.950819672131157" font-size="25.81967213114755" line-height="0" fill="#A584E3" opacity="1" font-family="SourceHanSansCN-Regular" font-weight="Regular" letter-spacing="0"  >this</tspan><tspan x="44.590573770491815" y="29.950819672131157" font-size="25.81967213114755" line-height="0" fill="#A584E3" opacity="1" font-family="SourceHanSansCN-Regular" font-weight="Regular" letter-spacing="0"  > is</tspan><tspan x="69.5581967213115" y="29.950819672131157" font-size="25.81967213114755" line-height="0" fill="#A584E3" opacity="1" font-family="SourceHanSansCN-Regular" font-weight="Regular" letter-spacing="0"  > a</tspan><tspan x="89.87827868852463" y="29.950819672131157" font-size="25.81967213114755" line-height="0" fill="#A584E3" opacity="1" font-family="SourceHanSansCN-Regular" font-weight="Regular" letter-spacing="0"  > dihedral</tspan><tspan x="196.64262295081974" y="29.950819672131157" font-size="25.81967213114755" line-height="0" fill="#A584E3" opacity="1" font-family="SourceHanSansCN-Regular" font-weight="Regular" letter-spacing="0" > angle</tspan></text></a></g><path  id="箭头 1" style="fill:#A584E3; opacity:1;" d="M433.378,294.176c0.108,-0.09133 0.224,-0.171 0.348,-0.239c0.12333,-0.06867 0.25233,-0.12433 0.387,-0.167c0.13467,-0.04267 0.27233,-0.072 0.413,-0.088l21.382,-2.404c0.07,-0.008 0.14,-0.01267 0.21,-0.014c0.07067,-0.00067 0.141,0.002 0.211,0.008c0.07067,0.006 0.14067,0.01533 0.21,0.028c0.06867,0.01267 0.137,0.02867 0.205,0.048c0.068,0.02 0.13467,0.043 0.2,0.069c0.06533,0.026 0.12933,0.055 0.192,0.087c0.06267,0.03267 0.12367,0.068 0.183,0.106c0.05867,0.03867 0.11567,0.08 0.171,0.124c0.05467,0.044 0.10733,0.09067 0.158,0.14c0.05067,0.04867 0.09867,0.1 0.144,0.154c0.04533,0.054 0.088,0.11 0.128,0.168c0.04,0.058 0.077,0.11767 0.111,0.179c0.034,0.062 0.065,0.12533 0.093,0.19c0.028,0.06467 0.05267,0.13067 0.074,0.198c0.02133,0.06733 0.03933,0.13533 0.054,0.204c0.01467,0.06867 0.026,0.138 0.034,0.208l2.404,21.382c0.016,0.14067 0.018,0.28133 0.006,0.422c-0.012,0.14067 -0.03733,0.279 -0.076,0.415c-0.03933,0.13533 -0.09133,0.26567 -0.156,0.391c-0.06533,0.126 -0.142,0.244 -0.23,0.354c-0.088,0.11067 -0.186,0.21167 -0.294,0.303c-0.108,0.09067 -0.22367,0.17033 -0.347,0.239c-0.124,0.068 -0.25333,0.12367 -0.388,0.167c-0.13467,0.04267 -0.272,0.072 -0.412,0.088c-0.07,0.00733 -0.14033,0.01167 -0.211,0.013c-0.07067,0.00067 -0.141,-0.002 -0.211,-0.008c-0.07,-0.006 -0.13967,-0.01533 -0.209,-0.028c-0.06933,-0.01267 -0.138,-0.02867 -0.206,-0.048c-0.068,-0.01933 -0.13467,-0.04233 -0.2,-0.069c-0.06533,-0.026 -0.12933,-0.055 -0.192,-0.087c-0.06267,-0.03267 -0.12333,-0.068 -0.182,-0.106c-0.05933,-0.03867 -0.11667,-0.08 -0.172,-0.124c-0.05467,-0.044 -0.10733,-0.09033 -0.158,-0.139c-0.05067,-0.04933 -0.09867,-0.101 -0.144,-0.155c-0.04533,-0.054 -0.088,-0.11 -0.128,-0.168c-0.04,-0.058 -0.077,-0.11767 -0.111,-0.179c-0.034,-0.062 -0.065,-0.12533 -0.093,-0.19c-0.028,-0.06467 -0.05267,-0.13067 -0.074,-0.198c-0.02133,-0.06667 -0.03933,-0.13467 -0.054,-0.204c-0.01467,-0.06867 -0.026,-0.138 -0.034,-0.208l-1.824,-16.22l-42.662,53.472l-3.364,-2.684l42.662,-53.472l-16.219,1.824c-0.07,0.008 -0.14033,0.01267 -0.211,0.014c-0.07067,0.00067 -0.141,-0.002 -0.211,-0.008c-0.07,-0.006 -0.13967,-0.01533 -0.209,-0.028c-0.06933,-0.01267 -0.138,-0.029 -0.206,-0.049c-0.06733,-0.01933 -0.134,-0.042 -0.2,-0.068c-0.06533,-0.026 -0.12933,-0.05533 -0.192,-0.088c-0.06267,-0.032 -0.12333,-0.06733 -0.182,-0.106c-0.05933,-0.038 -0.11667,-0.079 -0.172,-0.123c-0.05467,-0.044 -0.10733,-0.09067 -0.158,-0.14c-0.05067,-0.04867 -0.09867,-0.1 -0.144,-0.154c-0.04533,-0.054 -0.088,-0.11 -0.128,-0.168c-0.04,-0.058 -0.077,-0.118 -0.111,-0.18c-0.034,-0.06133 -0.065,-0.12433 -0.093,-0.189c-0.028,-0.06467 -0.05267,-0.13067 -0.074,-0.198c-0.02133,-0.06733 -0.03933,-0.13533 -0.054,-0.204c-0.01467,-0.06867 -0.026,-0.13833 -0.034,-0.209c-0.016,-0.14 -0.018,-0.28033 -0.006,-0.421c0.012,-0.14067 0.03767,-0.279 0.077,-0.415c0.03933,-0.136 0.09133,-0.26667 0.156,-0.392c0.06467,-0.12533 0.141,-0.24333 0.229,-0.354c0.08867,-0.11 0.18667,-0.21067 0.294,-0.302z"></path><path  id="直线 6" style="fill:#248182; opacity:1;" d="M182.996,331.625l175,-51.779l1.221,4.126l-175,51.779z"></path><path  id="路径 4" style="fill:#248182; opacity:1;" d="M249.59,268.245M249.59,268.245c5.41467,0 10.80167,1.59933 16.161,4.798c10.74067,6.41133 16.111,17.517 16.111,33.317h-4.303c0,-14.16467 -4.66967,-24.03433 -14.009,-29.609c-4.68133,-2.794 -9.33467,-4.191 -13.96,-4.191z"></path><g opacity="1" transform="translate(281.14752197265625 247.38986206054688)  rotate(0)"><a xlink:href="https://" xlink:title="跳转" target="_blank"><text><tspan x="0" y="29.950819672131157" font-size="25.81967213114755" line-height="0" fill="#248182" opacity="1" font-family="SourceHanSansCN-Regular" font-weight="Regular" letter-spacing="0" >β</tspan></text></a></g><g opacity="1" transform="translate(166.39352416992188 109.31126403808594)  rotate(0)"><a xlink:href="https://" xlink:title="跳转" target="_blank"><text><tspan x="0" y="29.950819672131157" font-size="25.81967213114755" line-height="0" fill="#248182" opacity="1" font-family="SourceHanSansCN-Regular" font-weight="Regular" letter-spacing="0"  >this</tspan><tspan x="44.590573770491815" y="29.950819672131157" font-size="25.81967213114755" line-height="0" fill="#248182" opacity="1" font-family="SourceHanSansCN-Regular" font-weight="Regular" letter-spacing="0"  > is</tspan><tspan x="69.5581967213115" y="29.950819672131157" font-size="25.81967213114755" line-height="0" fill="#248182" opacity="1" font-family="SourceHanSansCN-Regular" font-weight="Regular" letter-spacing="0"  > a</tspan><tspan x="89.87827868852463" y="29.950819672131157" font-size="25.81967213114755" line-height="0" fill="#248182" opacity="1" font-family="SourceHanSansCN-Regular" font-weight="Regular" letter-spacing="0"  > Line</tspan><tspan x="146.8364754098361" y="29.950819672131157" font-size="25.81967213114755" line-height="0" fill="#248182" opacity="1" font-family="SourceHanSansCN-Regular" font-weight="Regular" letter-spacing="0"  > surface</tspan><tspan x="240.79426229508204" y="29.950819672131157" font-size="25.81967213114755" line-height="0" fill="#248182" opacity="1" font-family="SourceHanSansCN-Regular" font-weight="Regular" letter-spacing="0"  > </tspan><tspan x="246.5778688524591" y="29.950819672131157" font-size="22.950819672131157" line-height="0" fill="#248182" opacity="1" font-family="SourceHanSansCN-Regular" font-weight="Regular" letter-spacing="0" >angle</tspan></text></a></g><path  id="箭头 2" style="fill:#248182; opacity:1;" d="M302.007,254.348c-0.03933,0.026 -0.08,0.04967 -0.122,0.071c-0.04133,0.02133 -0.084,0.04067 -0.128,0.058c-0.04333,0.01733 -0.08767,0.03233 -0.133,0.045c-0.04533,0.01333 -0.091,0.024 -0.137,0.032c-0.046,0.00867 -0.09267,0.015 -0.14,0.019c-0.04667,0.00333 -0.09333,0.00467 -0.14,0.004c-0.04733,-0.00067 -0.09433,-0.00367 -0.141,-0.009c-0.04667,-0.00533 -0.093,-0.013 -0.139,-0.023c-0.046,-0.01 -0.09133,-0.022 -0.136,-0.036c-0.04467,-0.01467 -0.08867,-0.03133 -0.132,-0.05c-0.04267,-0.01867 -0.08467,-0.03933 -0.126,-0.062c-0.04067,-0.02267 -0.08033,-0.04733 -0.119,-0.074c-0.03867,-0.02667 -0.076,-0.05533 -0.112,-0.086c-0.036,-0.03 -0.07033,-0.062 -0.103,-0.096c-0.03267,-0.034 -0.06367,-0.06933 -0.093,-0.106c-0.02933,-0.03667 -0.05667,-0.07467 -0.082,-0.114l-7.777,-12.053c-0.02533,-0.03933 -0.04867,-0.08 -0.07,-0.122c-0.02133,-0.042 -0.04067,-0.08467 -0.058,-0.128c-0.01733,-0.044 -0.03267,-0.08867 -0.046,-0.134c-0.01267,-0.04467 -0.02333,-0.09033 -0.032,-0.137c-0.008,-0.046 -0.014,-0.09233 -0.018,-0.139c-0.004,-0.04667 -0.00567,-0.09367 -0.005,-0.141c0.00067,-0.04667 0.00367,-0.09333 0.009,-0.14c0.006,-0.04667 0.01367,-0.093 0.023,-0.139c0.01,-0.046 0.02233,-0.09133 0.037,-0.136c0.014,-0.04467 0.03033,-0.08867 0.049,-0.132c0.01867,-0.04333 0.03933,-0.08533 0.062,-0.126c0.02333,-0.04133 0.04833,-0.08133 0.075,-0.12c0.02667,-0.03867 0.055,-0.076 0.085,-0.112c0.03067,-0.03533 0.063,-0.06933 0.097,-0.102c0.03333,-0.03267 0.06833,-0.06367 0.105,-0.093c0.03733,-0.02933 0.07567,-0.05667 0.115,-0.082c0.03933,-0.02533 0.08,-0.049 0.122,-0.071c0.04133,-0.02133 0.084,-0.04067 0.128,-0.058c0.04333,-0.01733 0.08767,-0.03233 0.133,-0.045c0.04533,-0.01333 0.091,-0.024 0.137,-0.032c0.04667,-0.00867 0.09333,-0.015 0.14,-0.019c0.04667,-0.00333 0.09367,-0.00467 0.141,-0.004c0.04667,0.00067 0.09333,0.00367 0.14,0.009c0.04667,0.00533 0.093,0.013 0.139,0.023c0.046,0.01 0.09133,0.022 0.136,0.036c0.04467,0.01467 0.08867,0.03133 0.132,0.05c0.04267,0.01867 0.08467,0.03933 0.126,0.062c0.04133,0.02267 0.081,0.04733 0.119,0.074c0.03867,0.02667 0.076,0.05533 0.112,0.086c0.036,0.03067 0.07033,0.06267 0.103,0.096c0.03267,0.034 0.06367,0.06933 0.093,0.106c0.02933,0.03667 0.05667,0.07467 0.082,0.114l5.899,9.144l22.221,-103.05l2.805,0.604l-22.221,103.05l9.143,-5.899c0.03933,-0.02533 0.08,-0.049 0.122,-0.071c0.042,-0.02133 0.08467,-0.04067 0.128,-0.058c0.044,-0.01733 0.08833,-0.03233 0.133,-0.045c0.04533,-0.01333 0.091,-0.024 0.137,-0.032c0.04667,-0.00867 0.09333,-0.015 0.14,-0.019c0.04667,-0.00333 0.09367,-0.00467 0.141,-0.004c0.04667,0.00067 0.09333,0.00367 0.14,0.009c0.04667,0.00533 0.093,0.013 0.139,0.023c0.046,0.01 0.09133,0.022 0.136,0.036c0.04467,0.01467 0.08867,0.03133 0.132,0.05c0.04267,0.01867 0.08467,0.03933 0.126,0.062c0.04133,0.02267 0.08133,0.04733 0.12,0.074c0.03867,0.02667 0.07567,0.05533 0.111,0.086c0.036,0.03067 0.07033,0.06267 0.103,0.096c0.03267,0.034 0.06367,0.06933 0.093,0.106c0.02933,0.03667 0.05667,0.07467 0.082,0.114c0.02533,0.04 0.04867,0.08067 0.07,0.122c0.022,0.042 0.04167,0.08467 0.059,0.128c0.01667,0.044 0.03167,0.08867 0.045,0.134c0.01267,0.04467 0.02333,0.09033 0.032,0.137c0.008,0.046 0.014,0.09233 0.018,0.139c0.004,0.04733 0.00567,0.09433 0.005,0.141c-0.00067,0.04667 -0.00367,0.09333 -0.009,0.14c-0.00533,0.04733 -0.013,0.09367 -0.023,0.139c-0.01,0.046 -0.02233,0.09133 -0.037,0.136c-0.014,0.04467 -0.03033,0.08867 -0.049,0.132c-0.01867,0.04333 -0.03933,0.08533 -0.062,0.126c-0.02333,0.04133 -0.04833,0.08133 -0.075,0.12c-0.02667,0.03867 -0.055,0.076 -0.085,0.112c-0.03067,0.03533 -0.063,0.06933 -0.097,0.102c-0.03333,0.03267 -0.06833,0.06367 -0.105,0.093c-0.03667,0.02933 -0.075,0.05667 -0.115,0.082z"></path></g></svg>