<svg xmlns="http://www.w3.org/2000/svg" xml:space="preserve" width="500" height="500" x="175" y="175" fill-rule="evenodd" class="fill-black dark:fill-white">
    <path d="M126.866 20a5.89 5.89 0 0 1 5.89 5.89v5.89h-11.78v-5.89a5.89 5.89 0 0 1 5.89-5.89Zm22.439 0a5.89 5.89 0 0 1 5.89 5.89v5.89h-11.78v-5.89a5.89 5.89 0 0 1 5.89-5.89Zm33.658 0h5.89v11.78h-5.89a5.89 5.89 0 0 1-5.89-5.89 5.89 5.89 0 0 1 5.89-5.89Z"/>
    <path d="M188.293 20h5.89a5.89 5.89 0 0 1 5.89 5.89v5.89h-11.78V20Zm28.329 0h5.89v11.78h-11.78v-5.89a5.89 5.89 0 0 1 5.89-5.89Z"/>
    <path d="M221.951 20h11.78v11.78h-11.78V20Z"/>
    <path d="M233.17 20h11.781v11.78h-11.78V20Z"/>
    <path d="M244.39 20h5.89a5.89 5.89 0 0 1 5.89 5.89v5.89h-11.78V20Zm28.33 0a5.89 5.89 0 0 1 5.89 5.89v5.89h-11.78v-5.89a5.89 5.89 0 0 1 5.89-5.89Zm33.658 0h5.89v11.78h-11.78v-5.89a5.89 5.89 0 0 1 5.89-5.89Z"/>
    <path d="M311.707 20h5.89a5.89 5.89 0 0 1 5.89 5.89 5.89 5.89 0 0 1-5.89 5.89h-5.89V20Zm61.988 0h5.89v11.78h-5.89a5.89 5.89 0 0 1-5.89-5.89 5.89 5.89 0 0 1 5.89-5.89Z"/>
    <path d="M379.024 20h5.89a5.89 5.89 0 0 1 5.89 5.89 5.89 5.89 0 0 1-5.89 5.89h-5.89V20ZM120.976 31.22h11.78V43h-11.78V31.22Z"/>
    <path d="M132.195 31.22h11.78V43h-11.78V31.22Z"/>
    <path d="M143.415 31.22h11.78V43h-11.78V31.22Zm28.329 0a5.89 5.89 0 0 1 5.89 5.89 5.89 5.89 0 0 1-5.89 5.89 5.89 5.89 0 0 1-5.89-5.89 5.89 5.89 0 0 1 5.89-5.89Zm16.549 0h11.78V43h-5.89a5.89 5.89 0 0 1-5.89-5.89v-5.89Z"/>
    <path d="M199.512 31.22h11.78V43h-11.78V31.22Z"/>
    <path d="M210.732 31.22h11.78V43h-11.78V31.22Z"/>
    <path d="M221.951 31.22h11.78v5.89a5.89 5.89 0 0 1-5.89 5.89h-5.89V31.22Zm22.439 0h11.78V43h-11.78V31.22Z"/>
    <path d="M255.61 31.22h11.78V43h-11.78V31.22Z"/>
    <path d="M266.83 31.22h11.78V43h-11.78V31.22Zm28.329 0h5.89V43h-5.89a5.89 5.89 0 0 1-5.89-5.89 5.89 5.89 0 0 1 5.89-5.89Z"/>
    <path d="M300.488 31.22h11.78v5.89a5.89 5.89 0 0 1-5.89 5.89h-5.89V31.22Zm39.549 0h5.89V43h-5.89a5.89 5.89 0 0 1-5.89-5.89 5.89 5.89 0 0 1 5.89-5.89Z"/>
    <path d="M345.366 31.22h5.89a5.89 5.89 0 0 1 5.89 5.89 5.89 5.89 0 0 1-5.89 5.89h-5.89V31.22Zm-224.39 11.219h11.78v5.89a5.89 5.89 0 0 1-5.89 5.89 5.89 5.89 0 0 1-5.89-5.89v-5.89Zm22.439 0h11.78v11.78h-5.89a5.89 5.89 0 0 1-5.89-5.89v-5.89Z"/>
    <path d="M154.634 42.439h5.89a5.89 5.89 0 0 1 5.89 5.89 5.89 5.89 0 0 1-5.89 5.89h-5.89V42.44Zm44.878 0h11.78v11.78h-11.78V42.44Zm44.878 0h11.78v11.78h-11.78V42.44Zm22.44 0h11.78v5.89a5.89 5.89 0 0 1-5.89 5.89 5.89 5.89 0 0 1-5.89-5.89v-5.89Zm95.646 0a5.89 5.89 0 0 1 5.89 5.89v5.89h-11.78v-5.89a5.89 5.89 0 0 1 5.89-5.89Zm22.439 0a5.89 5.89 0 0 1 5.89 5.89 5.89 5.89 0 0 1-5.89 5.89 5.89 5.89 0 0 1-5.89-5.89 5.89 5.89 0 0 1 5.89-5.89Zm-246.83 11.22a5.89 5.89 0 0 1 5.89 5.89v5.89h-11.78v-5.89a5.89 5.89 0 0 1 5.89-5.89Zm33.659 0h5.89v11.78h-11.78v-5.89a5.89 5.89 0 0 1 5.89-5.89Z"/>
    <path d="M177.073 53.659h5.89a5.89 5.89 0 0 1 5.89 5.89v5.89h-11.78v-11.78Zm22.439 0h11.78v11.78h-5.89a5.89 5.89 0 0 1-5.89-5.89v-5.89Z"/>
    <path d="M210.732 53.659h5.89a5.89 5.89 0 0 1 5.89 5.89v5.89h-11.78v-11.78Zm28.329 0h5.89v11.78h-11.78v-5.89a5.89 5.89 0 0 1 5.89-5.89Z"/>
    <path d="M244.39 53.659h11.78v11.78h-11.78v-11.78Zm73.208 0h5.89v11.78h-11.78v-5.89a5.89 5.89 0 0 1 5.89-5.89Z"/>
    <path d="M322.927 53.659h11.78v11.78h-11.78v-11.78Z"/>
    <path d="M334.146 53.659h5.89a5.89 5.89 0 0 1 5.89 5.89 5.89 5.89 0 0 1-5.89 5.89h-5.89v-11.78Zm22.439 0h11.78v11.78h-11.78v-11.78ZM115.646 64.878h5.89v11.78h-5.89a5.89 5.89 0 0 1-5.89-5.89 5.89 5.89 0 0 1 5.89-5.89Z"/>
    <path d="M120.976 64.878h11.78v11.78h-11.78v-11.78Z"/>
    <path d="M132.195 64.878h11.78v11.78h-11.78v-11.78Z"/>
    <path d="M143.415 64.878h11.78v11.78h-11.78v-11.78Z"/>
    <path d="M154.634 64.878h11.78v11.78h-11.78v-11.78Z"/>
    <path d="M165.854 64.878h11.78v11.78h-11.78v-11.78Z"/>
    <path d="M177.073 64.878h11.78v11.78h-11.78v-11.78Z"/>
    <path d="M188.293 64.878h5.89a5.89 5.89 0 0 1 5.89 5.89v5.89h-11.78v-11.78Zm22.439 0h11.78v5.89a5.89 5.89 0 0 1-5.89 5.89 5.89 5.89 0 0 1-5.89-5.89v-5.89Zm22.438 0h11.781v11.78h-5.89a5.89 5.89 0 0 1-5.89-5.89v-5.89Z"/>
    <path d="M244.39 64.878h11.78v11.78h-11.78v-11.78Z"/>
    <path d="M255.61 64.878h5.89a5.89 5.89 0 0 1 5.89 5.89v5.89h-11.78v-11.78Zm50.768 0h5.89v11.78h-5.89a5.89 5.89 0 0 1-5.89-5.89 5.89 5.89 0 0 1 5.89-5.89Z"/>
    <path d="M311.707 64.878h11.78v11.78h-11.78v-11.78Z"/>
    <path d="M322.927 64.878h11.78v5.89a5.89 5.89 0 0 1-5.89 5.89h-5.89v-11.78Zm28.329 0h5.89v11.78h-5.89a5.89 5.89 0 0 1-5.89-5.89 5.89 5.89 0 0 1 5.89-5.89Z"/>
    <path d="M356.585 64.878h11.78v11.78h-11.78v-11.78Z"/>
    <path d="M367.805 64.878h5.89a5.89 5.89 0 0 1 5.89 5.89v5.89h-11.78v-11.78Zm-246.829 11.22h11.78v11.78h-5.89a5.89 5.89 0 0 1-5.89-5.89v-5.89Z"/>
    <path d="M132.195 76.098h11.78v11.78h-11.78v-11.78Zm22.439 0h11.78v11.78h-11.78v-11.78Zm33.659 0h11.78v11.78h-5.89a5.89 5.89 0 0 1-5.89-5.89v-5.89Z"/>
    <path d="M199.512 76.098h5.89a5.89 5.89 0 0 1 5.89 5.89v5.89h-11.78v-11.78Zm28.329 0a5.89 5.89 0 0 1 5.89 5.89v5.89h-11.78v-5.89a5.89 5.89 0 0 1 5.89-5.89Zm16.549 0h11.78v11.78h-11.78v-11.78Z"/>
    <path d="M255.61 76.098h11.78v5.89a5.89 5.89 0 0 1-5.89 5.89h-5.89v-11.78Zm28.329 0a5.89 5.89 0 0 1 5.89 5.89 5.89 5.89 0 0 1-5.89 5.89 5.89 5.89 0 0 1-5.89-5.89 5.89 5.89 0 0 1 5.89-5.89Zm56.098 0a5.89 5.89 0 0 1 5.89 5.89v5.89h-11.78v-5.89a5.89 5.89 0 0 1 5.89-5.89Zm27.768 0h11.78v5.89a5.89 5.89 0 0 1-5.89 5.89 5.89 5.89 0 0 1-5.89-5.89v-5.89ZM115.646 87.317a5.89 5.89 0 0 1 5.89 5.89v5.89h-11.78v-5.89a5.89 5.89 0 0 1 5.89-5.89Zm16.549 0h11.78v5.89a5.89 5.89 0 0 1-5.89 5.89 5.89 5.89 0 0 1-5.89-5.89v-5.89Zm22.439 0h11.78v11.78h-11.78v-11.78Zm28.329 0a5.89 5.89 0 0 1 5.89 5.89v5.89h-11.78v-5.89a5.89 5.89 0 0 1 5.89-5.89Zm16.549 0h11.78v5.89a5.89 5.89 0 0 1-5.89 5.89 5.89 5.89 0 0 1-5.89-5.89v-5.89Zm22.439 0h11.78v5.89a5.89 5.89 0 0 1-5.89 5.89 5.89 5.89 0 0 1-5.89-5.89v-5.89Z"/>
    <path d="M244.39 87.317h11.78v11.78h-11.78v-11.78Zm28.33 0a5.89 5.89 0 0 1 5.89 5.89 5.89 5.89 0 0 1-5.89 5.89 5.89 5.89 0 0 1-5.89-5.89 5.89 5.89 0 0 1 5.89-5.89Zm22.439 0a5.89 5.89 0 0 1 5.89 5.89v5.89h-11.78v-5.89a5.89 5.89 0 0 1 5.89-5.89Zm22.439 0a5.89 5.89 0 0 1 5.89 5.89 5.89 5.89 0 0 1-5.89 5.89 5.89 5.89 0 0 1-5.89-5.89 5.89 5.89 0 0 1 5.89-5.89Zm16.548 0h11.78v5.89a5.89 5.89 0 0 1-5.89 5.89 5.89 5.89 0 0 1-5.89-5.89v-5.89Zm28.33 0a5.89 5.89 0 0 1 5.89 5.89v5.89h-11.78v-5.89a5.89 5.89 0 0 1 5.89-5.89Zm22.439 0a5.89 5.89 0 0 1 5.89 5.89 5.89 5.89 0 0 1-5.89 5.89 5.89 5.89 0 0 1-5.89-5.89 5.89 5.89 0 0 1 5.89-5.89Zm-275.159 11.22h11.78v11.78h-11.78v-11.78Zm39.549 0h5.89v11.78h-5.89a5.89 5.89 0 0 1-5.89-5.89 5.89 5.89 0 0 1 5.89-5.89Z"/>
    <path d="M154.634 98.537h11.78v11.78h-11.78v-11.78Z"/>
    <path d="M165.854 98.537h11.78v11.78h-11.78v-11.78Z"/>
    <path d="M177.073 98.537h11.78v5.89a5.89 5.89 0 0 1-5.89 5.89h-5.89v-11.78Zm39.549 0a5.89 5.89 0 0 1 5.89 5.89v5.89h-11.78v-5.89a5.89 5.89 0 0 1 5.89-5.89Zm22.439 0h5.89v11.78h-5.89a5.89 5.89 0 0 1-5.89-5.89 5.89 5.89 0 0 1 5.89-5.89Z"/>
    <path d="M244.39 98.537h11.78v11.78h-11.78v-11.78Z"/>
    <path d="M255.61 98.537h5.89a5.89 5.89 0 0 1 5.89 5.89v5.89h-11.78v-11.78Zm28.329 0h5.89v11.78h-11.78v-5.89a5.89 5.89 0 0 1 5.89-5.89Z"/>
    <path d="M289.268 98.537h11.78v5.89a5.89 5.89 0 0 1-5.89 5.89h-5.89v-11.78Zm39.549 0a5.89 5.89 0 0 1 5.89 5.89 5.89 5.89 0 0 1-5.89 5.89 5.89 5.89 0 0 1-5.89-5.89 5.89 5.89 0 0 1 5.89-5.89Zm22.439 0h5.89v11.78h-11.78v-5.89a5.89 5.89 0 0 1 5.89-5.89Z"/>
    <path d="M356.585 98.537h11.78v11.78h-11.78v-11.78Z"/>
    <path d="M367.805 98.537h5.89a5.89 5.89 0 0 1 5.89 5.89v5.89h-11.78v-11.78ZM48.33 109.756h5.89v11.78h-5.89a5.89 5.89 0 0 1-5.891-5.89 5.89 5.89 0 0 1 5.89-5.89Z"/>
    <path d="M53.659 109.756h5.89a5.89 5.89 0 0 1 5.89 5.89v5.89h-11.78v-11.78Zm39.548 0h5.89v11.78h-5.89a5.89 5.89 0 0 1-5.89-5.89 5.89 5.89 0 0 1 5.89-5.89Z"/>
    <path d="M98.537 109.756h11.78v11.78h-11.78v-11.78Z"/>
    <path d="M109.756 109.756h11.78v11.78h-11.78v-11.78Zm84.427 0h5.89v11.78h-5.89a5.89 5.89 0 0 1-5.89-5.89 5.89 5.89 0 0 1 5.89-5.89Z"/>
    <path d="M199.512 109.756h11.78v11.78h-11.78v-11.78Z"/>
    <path d="M210.732 109.756h11.78v5.89a5.89 5.89 0 0 1-5.89 5.89h-5.89v-11.78Zm44.878 0h11.78v11.78h-5.89a5.89 5.89 0 0 1-5.89-5.89v-5.89Z"/>
    <path d="M266.83 109.756h11.78v11.78h-11.78v-11.78Z"/>
    <path d="M278.049 109.756h11.78v5.89a5.89 5.89 0 0 1-5.89 5.89h-5.89v-11.78Zm39.549 0a5.89 5.89 0 0 1 5.89 5.89v5.89h-11.78v-5.89a5.89 5.89 0 0 1 5.89-5.89Zm22.439 0h5.89v11.78h-11.78v-5.89a5.89 5.89 0 0 1 5.89-5.89Z"/>
    <path d="M345.366 109.756h11.78v11.78h-11.78v-11.78Z"/>
    <path d="M356.585 109.756h11.78v11.78h-11.78v-11.78Z"/>
    <path d="M367.805 109.756h11.78v11.78h-11.78v-11.78Z"/>
    <path d="M379.024 109.756h11.78v11.78h-11.78v-11.78Z"/>
    <path d="M390.244 109.756h11.78v11.78h-11.78v-11.78Z"/>
    <path d="M401.463 109.756h5.89a5.89 5.89 0 0 1 5.89 5.89v5.89h-11.78v-11.78Zm28.33 0a5.89 5.89 0 0 1 5.89 5.89v5.89h-11.78v-5.89a5.89 5.89 0 0 1 5.89-5.89Zm-376.134 11.22h11.78v11.78h-11.78v-11.78Z"/>
    <path d="M64.878 120.976h5.89a5.89 5.89 0 0 1 5.89 5.89v5.89h-11.78v-11.78Zm44.878 0h11.78v11.78h-11.78v-11.78Zm28.329 0a5.89 5.89 0 0 1 5.89 5.89v5.89h-11.78v-5.89a5.89 5.89 0 0 1 5.89-5.89Zm61.427 0h11.78v11.78h-11.78v-11.78Zm28.329 0h5.89v11.78h-5.89a5.89 5.89 0 0 1-5.89-5.89 5.89 5.89 0 0 1 5.89-5.89Z"/>
    <path d="M233.17 120.976h5.891a5.89 5.89 0 0 1 5.89 5.89v5.89h-11.78v-11.78Zm33.66 0h11.78v11.78h-11.78v-11.78Zm28.329 0a5.89 5.89 0 0 1 5.89 5.89v5.89h-11.78v-5.89a5.89 5.89 0 0 1 5.89-5.89Zm16.548 0h11.78v5.89a5.89 5.89 0 0 1-5.89 5.89 5.89 5.89 0 0 1-5.89-5.89v-5.89Zm22.439 0h11.78v11.78h-5.89a5.89 5.89 0 0 1-5.89-5.89v-5.89Z"/>
    <path d="M345.366 120.976h11.78v5.89a5.89 5.89 0 0 1-5.89 5.89h-5.89v-11.78Zm22.439 0h11.78v11.78h-5.89a5.89 5.89 0 0 1-5.89-5.89v-5.89Z"/>
    <path d="M379.024 120.976h11.78v5.89a5.89 5.89 0 0 1-5.89 5.89h-5.89v-11.78Zm22.439 0h11.78v11.78h-5.89a5.89 5.89 0 0 1-5.89-5.89v-5.89Z"/>
    <path d="M412.683 120.976h11.78v11.78h-11.78v-11.78Z"/>
    <path d="M423.902 120.976h11.78v5.89a5.89 5.89 0 0 1-5.89 5.89h-5.89v-11.78Zm28.33 0h5.89v11.78h-11.78v-5.89a5.89 5.89 0 0 1 5.89-5.89Z"/>
    <path d="M457.561 120.976h5.89a5.89 5.89 0 0 1 5.89 5.89 5.89 5.89 0 0 1-5.89 5.89h-5.89v-11.78ZM25.89 132.195a5.89 5.89 0 0 1 5.89 5.89v5.89H20v-5.89a5.89 5.89 0 0 1 5.89-5.89Zm27.769 0h11.78v11.78h-5.89a5.89 5.89 0 0 1-5.89-5.89v-5.89Z"/>
    <path d="M64.878 132.195h11.78v11.78h-11.78v-11.78Z"/>
    <path d="M76.098 132.195h11.78v11.78h-11.78v-11.78Z"/>
    <path d="M87.317 132.195h11.78v11.78h-11.78v-11.78Z"/>
    <path d="M98.537 132.195h11.78v11.78h-11.78v-11.78Z"/>
    <path d="M109.756 132.195h11.78v11.78h-11.78v-11.78Z"/>
    <path d="M120.976 132.195h11.78v11.78h-11.78v-11.78Z"/>
    <path d="M132.195 132.195h11.78v11.78h-11.78v-11.78Z"/>
    <path d="M143.415 132.195h11.78v11.78h-11.78v-11.78Z"/>
    <path d="M154.634 132.195h11.78v11.78h-11.78v-11.78Z"/>
    <path d="M165.854 132.195h5.89a5.89 5.89 0 0 1 5.89 5.89v5.89h-11.78v-11.78Zm33.658 0h11.78v5.89a5.89 5.89 0 0 1-5.89 5.89 5.89 5.89 0 0 1-5.89-5.89v-5.89Zm33.658 0h11.781v11.78h-11.78v-11.78Z"/>
    <path d="M244.39 132.195h11.78v11.78h-11.78v-11.78Z"/>
    <path d="M255.61 132.195h11.78v11.78h-11.78v-11.78Z"/>
    <path d="M266.83 132.195h11.78v11.78h-11.78v-11.78Z"/>
    <path d="M278.049 132.195h11.78v11.78h-11.78v-11.78Z"/>
    <path d="M289.268 132.195h11.78v11.78h-11.78v-11.78Zm123.415 0h11.78v11.78h-11.78v-11.78Zm33.658 0h11.781v5.89a5.89 5.89 0 0 1-5.89 5.89 5.89 5.89 0 0 1-5.89-5.89v-5.89ZM20 143.415h11.78v5.89a5.89 5.89 0 0 1-5.89 5.89 5.89 5.89 0 0 1-5.89-5.89v-5.89Zm44.878 0h11.78v11.78h-5.89a5.89 5.89 0 0 1-5.89-5.89v-5.89Z"/>
    <path d="M76.098 143.415h11.78v11.78h-11.78v-11.78Zm67.317 0h11.78v5.89a5.89 5.89 0 0 1-5.89 5.89 5.89 5.89 0 0 1-5.89-5.89v-5.89Zm22.439 0h11.78v5.89a5.89 5.89 0 0 1-5.89 5.89 5.89 5.89 0 0 1-5.89-5.89v-5.89Zm28.329 0a5.89 5.89 0 0 1 5.89 5.89v5.89h-11.78v-5.89a5.89 5.89 0 0 1 5.89-5.89Zm22.439 0a5.89 5.89 0 0 1 5.89 5.89v5.89h-11.78v-5.89a5.89 5.89 0 0 1 5.89-5.89Zm16.548 0h11.781v11.78h-11.78v-11.78Zm22.44 0h11.78v11.78h-11.78v-11.78Zm22.439 0h11.78v11.78h-5.89a5.89 5.89 0 0 1-5.89-5.89v-5.89Z"/>
    <path d="M289.268 143.415h11.78v11.78h-11.78v-11.78Z"/>
    <path d="M300.488 143.415h11.78v11.78h-11.78v-11.78Z"/>
    <path d="M311.707 143.415h5.89a5.89 5.89 0 0 1 5.89 5.89v5.89h-11.78v-11.78Zm50.769 0a5.89 5.89 0 0 1 5.89 5.89 5.89 5.89 0 0 1-5.89 5.89 5.89 5.89 0 0 1-5.89-5.89 5.89 5.89 0 0 1 5.89-5.89Zm22.439 0h5.89v11.78h-5.89a5.89 5.89 0 0 1-5.89-5.89 5.89 5.89 0 0 1 5.89-5.89Z"/>
    <path d="M390.244 143.415h11.78v11.78h-11.78v-11.78Z"/>
    <path d="M401.463 143.415h11.78v11.78h-11.78v-11.78Z"/>
    <path d="M412.683 143.415h11.78v11.78h-11.78v-11.78Z"/>
    <path d="M423.902 143.415h5.89a5.89 5.89 0 0 1 5.89 5.89 5.89 5.89 0 0 1-5.89 5.89h-5.89v-11.78Zm39.549 0a5.89 5.89 0 0 1 5.89 5.89v5.89h-11.78v-5.89a5.89 5.89 0 0 1 5.89-5.89ZM59.549 154.634a5.89 5.89 0 0 1 5.89 5.89v5.89h-11.78v-5.89a5.89 5.89 0 0 1 5.89-5.89Zm16.549 0h11.78v11.78h-5.89a5.89 5.89 0 0 1-5.89-5.89v-5.89Z"/>
    <path d="M87.317 154.634h11.78v11.78h-11.78v-11.78Z"/>
    <path d="M98.537 154.634h5.89a5.89 5.89 0 0 1 5.89 5.89v5.89h-11.78v-11.78Zm39.548 0a5.89 5.89 0 0 1 5.89 5.89v5.89h-11.78v-5.89a5.89 5.89 0 0 1 5.89-5.89Zm50.208 0h11.78v11.78h-11.78v-11.78Z"/>
    <path d="M199.512 154.634h11.78v11.78h-11.78v-11.78Z"/>
    <path d="M210.732 154.634h11.78v5.89a5.89 5.89 0 0 1-5.89 5.89h-5.89v-11.78Zm22.438 0h11.781v11.78h-11.78v-11.78Zm22.44 0h11.78v5.89a5.89 5.89 0 0 1-5.89 5.89 5.89 5.89 0 0 1-5.89-5.89v-5.89Zm56.097 0h11.78v5.89a5.89 5.89 0 0 1-5.89 5.89 5.89 5.89 0 0 1-5.89-5.89v-5.89Zm28.33 0h5.89v11.78h-5.89a5.89 5.89 0 0 1-5.89-5.89 5.89 5.89 0 0 1 5.89-5.89Z"/>
    <path d="M345.366 154.634h5.89a5.89 5.89 0 0 1 5.89 5.89v5.89h-11.78v-11.78Zm28.329 0a5.89 5.89 0 0 1 5.89 5.89 5.89 5.89 0 0 1-5.89 5.89 5.89 5.89 0 0 1-5.89-5.89 5.89 5.89 0 0 1 5.89-5.89Zm16.549 0h11.78v11.78h-11.78v-11.78Zm50.768 0h5.89v11.78h-5.89a5.89 5.89 0 0 1-5.89-5.89 5.89 5.89 0 0 1 5.89-5.89Z"/>
    <path d="M446.341 154.634h11.781v11.78h-11.78v-11.78Z"/>
    <path d="M457.561 154.634h11.78v5.89a5.89 5.89 0 0 1-5.89 5.89h-5.89v-11.78ZM25.89 165.854h5.89v11.78H20v-5.89a5.89 5.89 0 0 1 5.89-5.89Z"/>
    <path d="M31.22 165.854H43v11.78H31.22v-11.78Z"/>
    <path d="M42.439 165.854h11.78v11.78H42.44v-11.78Z"/>
    <path d="M53.659 165.854h11.78v11.78h-11.78v-11.78Z"/>
    <path d="M64.878 165.854h5.89a5.89 5.89 0 0 1 5.89 5.89v5.89h-11.78v-11.78Zm33.659 0h11.78v11.78h-11.78v-11.78Z"/>
    <path d="M109.756 165.854h11.78v11.78h-11.78v-11.78Z"/>
    <path d="M120.976 165.854h11.78v11.78h-11.78v-11.78Z"/>
    <path d="M132.195 165.854h11.78v11.78h-11.78v-11.78Z"/>
    <path d="M143.415 165.854h11.78v11.78h-11.78v-11.78Z"/>
    <path d="M154.634 165.854h11.78v11.78h-11.78v-11.78Z"/>
    <path d="M165.854 165.854h5.89a5.89 5.89 0 0 1 5.89 5.89 5.89 5.89 0 0 1-5.89 5.89h-5.89v-11.78Zm22.439 0h11.78v11.78h-5.89a5.89 5.89 0 0 1-5.89-5.89v-5.89Z"/>
    <path d="M199.512 165.854h11.78v5.89a5.89 5.89 0 0 1-5.89 5.89h-5.89v-11.78Zm28.329 0h5.89v11.78h-5.89a5.89 5.89 0 0 1-5.89-5.89 5.89 5.89 0 0 1 5.89-5.89Z"/>
    <path d="M233.17 165.854h11.781v11.78h-11.78v-11.78Zm39.55 0a5.89 5.89 0 0 1 5.89 5.89 5.89 5.89 0 0 1-5.89 5.89 5.89 5.89 0 0 1-5.89-5.89 5.89 5.89 0 0 1 5.89-5.89Zm22.439 0a5.89 5.89 0 0 1 5.89 5.89 5.89 5.89 0 0 1-5.89 5.89 5.89 5.89 0 0 1-5.89-5.89 5.89 5.89 0 0 1 5.89-5.89Zm50.207 0h11.78v11.78h-5.89a5.89 5.89 0 0 1-5.89-5.89v-5.89Z"/>
    <path d="M356.585 165.854h5.89a5.89 5.89 0 0 1 5.89 5.89 5.89 5.89 0 0 1-5.89 5.89h-5.89v-11.78Zm33.659 0h11.78v5.89a5.89 5.89 0 0 1-5.89 5.89 5.89 5.89 0 0 1-5.89-5.89v-5.89Zm56.097 0h11.781v5.89a5.89 5.89 0 0 1-5.89 5.89 5.89 5.89 0 0 1-5.89-5.89v-5.89Zm28.329 0a5.89 5.89 0 0 1 5.891 5.89v5.89h-11.78v-5.89a5.89 5.89 0 0 1 5.89-5.89ZM20 177.073h11.78v11.78H20v-11.78Zm44.878 0h11.78v11.78h-11.78v-11.78Zm28.329 0h5.89v11.78h-5.89a5.89 5.89 0 0 1-5.89-5.89 5.89 5.89 0 0 1 5.89-5.89Z"/>
    <path d="M98.537 177.073h11.78v5.89a5.89 5.89 0 0 1-5.89 5.89h-5.89v-11.78Zm44.878 0h11.78v5.89a5.89 5.89 0 0 1-5.89 5.89 5.89 5.89 0 0 1-5.89-5.89v-5.89Zm89.755 0h11.781v5.89a5.89 5.89 0 0 1-5.89 5.89 5.89 5.89 0 0 1-5.89-5.89v-5.89Zm28.33 0a5.89 5.89 0 0 1 5.89 5.89v5.89h-11.78v-5.89a5.89 5.89 0 0 1 5.89-5.89Zm44.878 0h5.89v11.78h-5.89a5.89 5.89 0 0 1-5.89-5.89 5.89 5.89 0 0 1 5.89-5.89Z"/>
    <path d="M311.707 177.073h5.89a5.89 5.89 0 0 1 5.89 5.89 5.89 5.89 0 0 1-5.89 5.89h-5.89v-11.78Zm95.647 0h5.89v11.78h-11.78v-5.89a5.89 5.89 0 0 1 5.89-5.89Z"/>
    <path d="M412.683 177.073h11.78v11.78h-11.78v-11.78Z"/>
    <path d="M423.902 177.073h5.89a5.89 5.89 0 0 1 5.89 5.89v5.89h-11.78v-11.78Zm39.549 0h5.89v11.78h-11.78v-5.89a5.89 5.89 0 0 1 5.89-5.89Z"/>
    <path d="M468.78 177.073h11.781v11.78h-11.78v-11.78ZM20 188.293h11.78v11.78H20v-11.78Zm39.549 0h5.89v11.78h-5.89a5.89 5.89 0 0 1-5.89-5.89 5.89 5.89 0 0 1 5.89-5.89Z"/>
    <path d="M64.878 188.293h11.78v5.89a5.89 5.89 0 0 1-5.89 5.89h-5.89v-11.78Zm50.768 0h5.89v11.78h-11.78v-5.89a5.89 5.89 0 0 1 5.89-5.89Z"/>
    <path d="M120.976 188.293h5.89a5.89 5.89 0 0 1 5.89 5.89 5.89 5.89 0 0 1-5.89 5.89h-5.89v-11.78Zm61.987 0a5.89 5.89 0 0 1 5.89 5.89 5.89 5.89 0 0 1-5.89 5.89 5.89 5.89 0 0 1-5.89-5.89 5.89 5.89 0 0 1 5.89-5.89Zm67.317 0h5.89v11.78h-11.78v-5.89a5.89 5.89 0 0 1 5.89-5.89Z"/>
    <path d="M255.61 188.293h11.78v11.78h-11.78v-11.78Z"/>
    <path d="M266.83 188.293h5.89a5.89 5.89 0 0 1 5.89 5.89v5.89h-11.78v-11.78Zm28.329 0a5.89 5.89 0 0 1 5.89 5.89v5.89h-11.78v-5.89a5.89 5.89 0 0 1 5.89-5.89Zm33.658 0a5.89 5.89 0 0 1 5.89 5.89 5.89 5.89 0 0 1-5.89 5.89 5.89 5.89 0 0 1-5.89-5.89 5.89 5.89 0 0 1 5.89-5.89Zm33.659 0h5.89v11.78h-11.78v-5.89a5.89 5.89 0 0 1 5.89-5.89Z"/>
    <path d="M367.805 188.293h11.78v11.78h-11.78v-11.78Z"/>
    <path d="M379.024 188.293h5.89a5.89 5.89 0 0 1 5.89 5.89 5.89 5.89 0 0 1-5.89 5.89h-5.89v-11.78Zm22.439 0h11.78v5.89a5.89 5.89 0 0 1-5.89 5.89 5.89 5.89 0 0 1-5.89-5.89v-5.89Zm22.439 0h11.78v11.78h-11.78v-11.78Z"/>
    <path d="M435.122 188.293h5.89a5.89 5.89 0 0 1 5.89 5.89v5.89h-11.78v-11.78Zm22.439 0h11.78v11.78h-5.89a5.89 5.89 0 0 1-5.89-5.89v-5.89Z"/>
    <path d="M468.78 188.293h11.781v5.89a5.89 5.89 0 0 1-5.89 5.89h-5.89v-11.78ZM20 199.512h11.78v11.78H20v-11.78Z"/>
    <path d="M31.22 199.512H43v11.78H31.22v-11.78Z"/>
    <path d="M42.439 199.512h5.89a5.89 5.89 0 0 1 5.89 5.89 5.89 5.89 0 0 1-5.89 5.89h-5.89v-11.78Zm50.768 0h5.89v11.78h-5.89a5.89 5.89 0 0 1-5.89-5.89 5.89 5.89 0 0 1 5.89-5.89Z"/>
    <path d="M98.537 199.512h11.78v11.78h-11.78v-11.78Z"/>
    <path d="M109.756 199.512h11.78v5.89a5.89 5.89 0 0 1-5.89 5.89h-5.89v-11.78Zm50.768 0h5.89v11.78h-5.89a5.89 5.89 0 0 1-5.89-5.89 5.89 5.89 0 0 1 5.89-5.89Z"/>
    <path d="M165.854 199.512h5.89a5.89 5.89 0 0 1 5.89 5.89 5.89 5.89 0 0 1-5.89 5.89h-5.89v-11.78Zm39.548 0a5.89 5.89 0 0 1 5.89 5.89 5.89 5.89 0 0 1-5.89 5.89 5.89 5.89 0 0 1-5.89-5.89 5.89 5.89 0 0 1 5.89-5.89Zm33.659 0h5.89v11.78h-11.78v-5.89a5.89 5.89 0 0 1 5.89-5.89Z"/>
    <path d="M244.39 199.512h11.78v11.78h-11.78v-11.78Z"/>
    <path d="M255.61 199.512h11.78v11.78h-11.78v-11.78Z"/>
    <path d="M266.83 199.512h11.78v11.78h-11.78v-11.78Z"/>
    <path d="M278.049 199.512h11.78v11.78h-11.78v-11.78Z"/>
    <path d="M289.268 199.512h11.78v11.78h-11.78v-11.78Z"/>
    <path d="M300.488 199.512h5.89a5.89 5.89 0 0 1 5.89 5.89 5.89 5.89 0 0 1-5.89 5.89h-5.89v-11.78Zm39.549 0a5.89 5.89 0 0 1 5.89 5.89 5.89 5.89 0 0 1-5.89 5.89 5.89 5.89 0 0 1-5.89-5.89 5.89 5.89 0 0 1 5.89-5.89Zm16.548 0h11.78v11.78h-5.89a5.89 5.89 0 0 1-5.89-5.89v-5.89Z"/>
    <path d="M367.805 199.512h11.78v5.89a5.89 5.89 0 0 1-5.89 5.89h-5.89v-11.78Zm56.097 0h11.78v11.78h-5.89a5.89 5.89 0 0 1-5.89-5.89v-5.89Z"/>
    <path d="M435.122 199.512h11.78v11.78h-11.78v-11.78ZM20 210.732h11.78v11.78H20v-11.78Zm39.549 0h5.89v11.78h-11.78v-5.89a5.89 5.89 0 0 1 5.89-5.89Z"/>
    <path d="M64.878 210.732h5.89a5.89 5.89 0 0 1 5.89 5.89v5.89h-11.78v-11.78Zm33.659 0h11.78v5.89a5.89 5.89 0 0 1-5.89 5.89 5.89 5.89 0 0 1-5.89-5.89v-5.89Zm28.329 0h5.89v11.78h-5.89a5.89 5.89 0 0 1-5.89-5.89 5.89 5.89 0 0 1 5.89-5.89Z"/>
    <path d="M132.195 210.732h11.78v11.78h-11.78v-11.78Z"/>
    <path d="M143.415 210.732h5.89a5.89 5.89 0 0 1 5.89 5.89v5.89h-11.78v-11.78Zm73.207 0h5.89v11.78h-11.78v-5.89a5.89 5.89 0 0 1 5.89-5.89Z"/>
    <path d="M221.951 210.732h11.78v11.78h-11.78v-11.78Z"/>
    <path d="M233.17 210.732h11.781v11.78h-11.78v-11.78Z"/>
    <path d="M244.39 210.732h11.78v11.78h-11.78v-11.78Z"/>
    <path d="M255.61 210.732h11.78v11.78h-11.78v-11.78Z"/>
    <path d="M266.83 210.732h11.78v5.89a5.89 5.89 0 0 1-5.89 5.89h-5.89v-11.78Zm22.438 0h11.78v11.78h-11.78v-11.78Zm28.33 0h5.89v11.78h-11.78v-5.89a5.89 5.89 0 0 1 5.89-5.89Z"/>
    <path d="M322.927 210.732h5.89a5.89 5.89 0 0 1 5.89 5.89v5.89h-11.78v-11.78Zm28.329 0a5.89 5.89 0 0 1 5.89 5.89v5.89h-11.78v-5.89a5.89 5.89 0 0 1 5.89-5.89Zm33.659 0h5.89v11.78h-5.89a5.89 5.89 0 0 1-5.89-5.89 5.89 5.89 0 0 1 5.89-5.89Z"/>
    <path d="M390.244 210.732h5.89a5.89 5.89 0 0 1 5.89 5.89 5.89 5.89 0 0 1-5.89 5.89h-5.89v-11.78Zm28.329 0a5.89 5.89 0 0 1 5.89 5.89 5.89 5.89 0 0 1-5.89 5.89 5.89 5.89 0 0 1-5.89-5.89 5.89 5.89 0 0 1 5.89-5.89Zm16.549 0h11.78v11.78h-11.78v-11.78ZM20 221.951h11.78v11.78h-5.89a5.89 5.89 0 0 1-5.89-5.89v-5.89Z"/>
    <path d="M31.22 221.951h5.89a5.89 5.89 0 0 1 5.89 5.89v5.89H31.22v-11.78Zm22.439 0h11.78v11.78h-5.89a5.89 5.89 0 0 1-5.89-5.89v-5.89Z"/>
    <path d="M64.878 221.951h11.78v11.78h-11.78v-11.78Z"/>
    <path d="M76.098 221.951h11.78v11.78h-11.78v-11.78Z"/>
    <path d="M87.317 221.951h5.89a5.89 5.89 0 0 1 5.89 5.89 5.89 5.89 0 0 1-5.89 5.89h-5.89v-11.78Zm56.098 0h11.78v11.78h-5.89a5.89 5.89 0 0 1-5.89-5.89v-5.89Z"/>
    <path d="M154.634 221.951h5.89a5.89 5.89 0 0 1 5.89 5.89v5.89h-11.78v-11.78Zm28.329 0a5.89 5.89 0 0 1 5.89 5.89v5.89h-11.78v-5.89a5.89 5.89 0 0 1 5.89-5.89Zm22.439 0h5.89v11.78h-11.78v-5.89a5.89 5.89 0 0 1 5.89-5.89Z"/>
    <path d="M210.732 221.951h11.78v11.78h-11.78v-11.78Zm44.878 0h11.78v5.89a5.89 5.89 0 0 1-5.89 5.89 5.89 5.89 0 0 1-5.89-5.89v-5.89Zm28.329 0h5.89v11.78h-5.89a5.89 5.89 0 0 1-5.89-5.89 5.89 5.89 0 0 1 5.89-5.89Z"/>
    <path d="M289.268 221.951h11.78v11.78h-11.78v-11.78Z"/>
    <path d="M300.488 221.951h11.78v11.78h-11.78v-11.78Z"/>
    <path d="M311.707 221.951h11.78v11.78h-11.78v-11.78Z"/>
    <path d="M322.927 221.951h11.78v11.78h-11.78v-11.78Z"/>
    <path d="M334.146 221.951h11.78v11.78h-11.78v-11.78Z"/>
    <path d="M345.366 221.951h11.78v5.89a5.89 5.89 0 0 1-5.89 5.89h-5.89v-11.78Zm61.988 0a5.89 5.89 0 0 1 5.89 5.89v5.89h-11.78v-5.89a5.89 5.89 0 0 1 5.89-5.89Zm22.439 0h5.89v11.78h-5.89a5.89 5.89 0 0 1-5.89-5.89 5.89 5.89 0 0 1 5.89-5.89Z"/>
    <path d="M435.122 221.951h11.78v11.78h-11.78v-11.78ZM31.22 233.17H43v5.891a5.89 5.89 0 0 1-5.89 5.89 5.89 5.89 0 0 1-5.89-5.89v-5.89Zm44.878 0h11.78v5.891a5.89 5.89 0 0 1-5.89 5.89 5.89 5.89 0 0 1-5.89-5.89v-5.89Zm28.329 0a5.89 5.89 0 0 1 5.89 5.891 5.89 5.89 0 0 1-5.89 5.89 5.89 5.89 0 0 1-5.89-5.89 5.89 5.89 0 0 1 5.89-5.89Zm22.439 0h5.89v11.781h-5.89a5.89 5.89 0 0 1-5.89-5.89 5.89 5.89 0 0 1 5.89-5.89Z"/>
    <path d="M132.195 233.17h5.89a5.89 5.89 0 0 1 5.89 5.891v5.89h-11.78v-11.78Zm22.439 0h11.78v11.781h-5.89a5.89 5.89 0 0 1-5.89-5.89v-5.89Z"/>
    <path d="M165.854 233.17h11.78v11.781h-11.78v-11.78Z"/>
    <path d="M177.073 233.17h11.78v11.781h-11.78v-11.78Zm22.439 0h11.78v11.781h-11.78v-11.78Z"/>
    <path d="M210.732 233.17h11.78v11.781h-11.78v-11.78Zm39.548 0a5.89 5.89 0 0 1 5.89 5.891 5.89 5.89 0 0 1-5.89 5.89 5.89 5.89 0 0 1-5.89-5.89 5.89 5.89 0 0 1 5.89-5.89Zm22.44 0a5.89 5.89 0 0 1 5.89 5.891 5.89 5.89 0 0 1-5.89 5.89 5.89 5.89 0 0 1-5.89-5.89 5.89 5.89 0 0 1 5.89-5.89Zm100.975 0a5.89 5.89 0 0 1 5.89 5.891 5.89 5.89 0 0 1-5.89 5.89 5.89 5.89 0 0 1-5.89-5.89 5.89 5.89 0 0 1 5.89-5.89Zm22.439 0h5.89v11.781h-11.78v-5.89a5.89 5.89 0 0 1 5.89-5.89Z"/>
    <path d="M401.463 233.17h11.78v11.781h-11.78v-11.78Z"/>
    <path d="M412.683 233.17h5.89a5.89 5.89 0 0 1 5.89 5.891 5.89 5.89 0 0 1-5.89 5.89h-5.89v-11.78Zm22.439 0h11.78v11.781h-5.89a5.89 5.89 0 0 1-5.89-5.89v-5.89Z"/>
    <path d="M446.341 233.17h5.89a5.89 5.89 0 0 1 5.891 5.891v5.89h-11.78v-11.78ZM25.89 244.39a5.89 5.89 0 0 1 5.89 5.89v5.89H20v-5.89a5.89 5.89 0 0 1 5.89-5.89Zm22.44 0a5.89 5.89 0 0 1 5.89 5.89 5.89 5.89 0 0 1-5.89 5.89 5.89 5.89 0 0 1-5.891-5.89 5.89 5.89 0 0 1 5.89-5.89Zm44.877 0a5.89 5.89 0 0 1 5.89 5.89 5.89 5.89 0 0 1-5.89 5.89 5.89 5.89 0 0 1-5.89-5.89 5.89 5.89 0 0 1 5.89-5.89Zm22.439 0a5.89 5.89 0 0 1 5.89 5.89 5.89 5.89 0 0 1-5.89 5.89 5.89 5.89 0 0 1-5.89-5.89 5.89 5.89 0 0 1 5.89-5.89Zm16.549 0h11.78v11.78h-5.89a5.89 5.89 0 0 1-5.89-5.89v-5.89Z"/>
    <path d="M143.415 244.39h5.89a5.89 5.89 0 0 1 5.89 5.89 5.89 5.89 0 0 1-5.89 5.89h-5.89v-11.78Zm33.658 0h11.78v11.78h-11.78v-11.78Zm22.439 0h11.78v11.78h-5.89a5.89 5.89 0 0 1-5.89-5.89v-5.89Z"/>
    <path d="M210.732 244.39h11.78v11.78h-11.78v-11.78Zm28.329 0a5.89 5.89 0 0 1 5.89 5.89v5.89h-11.78v-5.89a5.89 5.89 0 0 1 5.89-5.89Zm44.878 0a5.89 5.89 0 0 1 5.89 5.89v5.89h-11.78v-5.89a5.89 5.89 0 0 1 5.89-5.89Zm22.439 0h5.89v11.78h-11.78v-5.89a5.89 5.89 0 0 1 5.89-5.89Z"/>
    <path d="M311.707 244.39h11.78v11.78h-11.78v-11.78Z"/>
    <path d="M322.927 244.39h5.89a5.89 5.89 0 0 1 5.89 5.89 5.89 5.89 0 0 1-5.89 5.89h-5.89v-11.78Zm39.549 0a5.89 5.89 0 0 1 5.89 5.89v5.89h-11.78v-5.89a5.89 5.89 0 0 1 5.89-5.89Zm27.768 0h11.78v11.78h-11.78v-11.78Z"/>
    <path d="M401.463 244.39h11.78v11.78h-11.78v-11.78Zm44.878 0h11.781v11.78h-11.78v-11.78Zm28.329 0a5.89 5.89 0 0 1 5.891 5.89v5.89h-11.78v-5.89a5.89 5.89 0 0 1 5.89-5.89ZM20 255.61h11.78v11.78H20v-11.78Zm106.866 0a5.89 5.89 0 0 1 5.89 5.89 5.89 5.89 0 0 1-5.89 5.89 5.89 5.89 0 0 1-5.89-5.89 5.89 5.89 0 0 1 5.89-5.89Zm44.878 0h5.89v11.78h-11.78v-5.89a5.89 5.89 0 0 1 5.89-5.89Z"/>
    <path d="M177.073 255.61h11.78v11.78h-11.78v-11.78Z"/>
    <path d="M188.293 255.61h5.89a5.89 5.89 0 0 1 5.89 5.89 5.89 5.89 0 0 1-5.89 5.89h-5.89v-11.78Zm22.439 0h11.78v11.78h-11.78v-11.78Zm22.438 0h11.781v11.78h-11.78v-11.78Zm28.33 0h5.89v11.78h-5.89a5.89 5.89 0 0 1-5.89-5.89 5.89 5.89 0 0 1 5.89-5.89Z"/>
    <path d="M266.83 255.61h11.78v11.78h-11.78v-11.78Z"/>
    <path d="M278.049 255.61h11.78v5.89a5.89 5.89 0 0 1-5.89 5.89h-5.89v-11.78Zm22.439 0h11.78v11.78h-5.89a5.89 5.89 0 0 1-5.89-5.89v-5.89Z"/>
    <path d="M311.707 255.61h11.78v5.89a5.89 5.89 0 0 1-5.89 5.89h-5.89v-11.78Zm44.878 0h11.78v11.78h-5.89a5.89 5.89 0 0 1-5.89-5.89v-5.89Z"/>
    <path d="M367.805 255.61h11.78v11.78h-11.78v-11.78Z"/>
    <path d="M379.024 255.61h11.78v11.78h-11.78v-11.78Z"/>
    <path d="M390.244 255.61h11.78v11.78h-11.78v-11.78Z"/>
    <path d="M401.463 255.61h11.78v11.78h-11.78v-11.78Z"/>
    <path d="M412.683 255.61h5.89a5.89 5.89 0 0 1 5.89 5.89v5.89h-11.78v-11.78Zm28.329 0h5.89v11.78h-5.89a5.89 5.89 0 0 1-5.89-5.89 5.89 5.89 0 0 1 5.89-5.89Z"/>
    <path d="M446.341 255.61h11.781v11.78h-11.78v-11.78Z"/>
    <path d="M457.561 255.61h11.78v11.78h-11.78v-11.78Z"/>
    <path d="M468.78 255.61h11.781v5.89a5.89 5.89 0 0 1-5.89 5.89h-5.89v-11.78ZM20 266.83h11.78v11.78H20v-11.78Z"/>
    <path d="M31.22 266.83h5.89a5.89 5.89 0 0 1 5.89 5.89v5.89H31.22v-11.78Zm28.329 0h5.89v11.78h-5.89a5.89 5.89 0 0 1-5.89-5.89 5.89 5.89 0 0 1 5.89-5.89Z"/>
    <path d="M64.878 266.83h5.89a5.89 5.89 0 0 1 5.89 5.89 5.89 5.89 0 0 1-5.89 5.89h-5.89v-11.78Zm28.329 0h5.89v11.78h-5.89a5.89 5.89 0 0 1-5.89-5.89 5.89 5.89 0 0 1 5.89-5.89Z"/>
    <path d="M98.537 266.83h5.89a5.89 5.89 0 0 1 5.89 5.89 5.89 5.89 0 0 1-5.89 5.89h-5.89v-11.78Zm39.548 0h5.89v11.78h-5.89a5.89 5.89 0 0 1-5.89-5.89 5.89 5.89 0 0 1 5.89-5.89Z"/>
    <path d="M143.415 266.83h5.89a5.89 5.89 0 0 1 5.89 5.89 5.89 5.89 0 0 1-5.89 5.89h-5.89v-11.78Zm22.439 0h11.78v11.78h-5.89a5.89 5.89 0 0 1-5.89-5.89v-5.89Z"/>
    <path d="M177.073 266.83h11.78v5.89a5.89 5.89 0 0 1-5.89 5.89h-5.89v-11.78Zm33.659 0h11.78v5.89a5.89 5.89 0 0 1-5.89 5.89 5.89 5.89 0 0 1-5.89-5.89v-5.89Zm22.438 0h11.781v5.89a5.89 5.89 0 0 1-5.89 5.89 5.89 5.89 0 0 1-5.89-5.89v-5.89Zm157.074 0h11.78v11.78h-11.78v-11.78Zm22.439 0h11.78v11.78h-11.78v-11.78Z"/>
    <path d="M423.902 266.83h5.89a5.89 5.89 0 0 1 5.89 5.89v5.89h-11.78v-11.78Zm33.659 0h11.78v11.78h-11.78v-11.78ZM20 278.049h11.78v11.78H20v-11.78Z"/>
    <path d="M31.22 278.049H43v11.78H31.22v-11.78Z"/>
    <path d="M42.439 278.049h5.89a5.89 5.89 0 0 1 5.89 5.89 5.89 5.89 0 0 1-5.89 5.89h-5.89v-11.78Zm73.207 0h5.89v11.78h-11.78v-5.89a5.89 5.89 0 0 1 5.89-5.89Z"/>
    <path d="M120.976 278.049h5.89a5.89 5.89 0 0 1 5.89 5.89v5.89h-11.78v-11.78Zm39.548 0a5.89 5.89 0 0 1 5.89 5.89v5.89h-11.78v-5.89a5.89 5.89 0 0 1 5.89-5.89Zm44.878 0a5.89 5.89 0 0 1 5.89 5.89v5.89h-11.78v-5.89a5.89 5.89 0 0 1 5.89-5.89Zm67.318 0h5.89v11.78h-5.89a5.89 5.89 0 0 1-5.89-5.89 5.89 5.89 0 0 1 5.89-5.89Z"/>
    <path d="M278.049 278.049h11.78v11.78h-11.78v-11.78Z"/>
    <path d="M289.268 278.049h5.89a5.89 5.89 0 0 1 5.89 5.89 5.89 5.89 0 0 1-5.89 5.89h-5.89v-11.78Zm28.33 0a5.89 5.89 0 0 1 5.89 5.89v5.89h-11.78v-5.89a5.89 5.89 0 0 1 5.89-5.89Zm22.439 0a5.89 5.89 0 0 1 5.89 5.89 5.89 5.89 0 0 1-5.89 5.89 5.89 5.89 0 0 1-5.89-5.89 5.89 5.89 0 0 1 5.89-5.89Zm44.878 0h5.89v11.78h-5.89a5.89 5.89 0 0 1-5.89-5.89 5.89 5.89 0 0 1 5.89-5.89Z"/>
    <path d="M390.244 278.049h11.78v11.78h-11.78v-11.78Z"/>
    <path d="M401.463 278.049h11.78v11.78h-11.78v-11.78Z"/>
    <path d="M412.683 278.049h11.78v11.78h-11.78v-11.78Z"/>
    <path d="M423.902 278.049h11.78v5.89a5.89 5.89 0 0 1-5.89 5.89h-5.89v-11.78Zm28.33 0h5.89v11.78h-5.89a5.89 5.89 0 0 1-5.89-5.89 5.89 5.89 0 0 1 5.89-5.89Z"/>
    <path d="M457.561 278.049h11.78v11.78h-11.78v-11.78Z"/>
    <path d="M468.78 278.049h5.89a5.89 5.89 0 0 1 5.891 5.89v5.89h-11.78v-11.78ZM20 289.268h11.78v5.89a5.89 5.89 0 0 1-5.89 5.89 5.89 5.89 0 0 1-5.89-5.89v-5.89Zm61.988 0h5.89v11.78h-11.78v-5.89a5.89 5.89 0 0 1 5.89-5.89Z"/>
    <path d="M87.317 289.268h11.78v11.78h-11.78v-11.78Z"/>
    <path d="M98.537 289.268h11.78v11.78h-11.78v-11.78Z"/>
    <path d="M109.756 289.268h11.78v11.78h-11.78v-11.78Z"/>
    <path d="M120.976 289.268h11.78v11.78h-11.78v-11.78Z"/>
    <path d="M132.195 289.268h5.89a5.89 5.89 0 0 1 5.89 5.89v5.89h-11.78v-11.78Zm22.439 0h11.78v11.78h-11.78v-11.78Z"/>
    <path d="M165.854 289.268h11.78v11.78h-11.78v-11.78Z"/>
    <path d="M177.073 289.268h11.78v11.78h-11.78v-11.78Z"/>
    <path d="M188.293 289.268h11.78v11.78h-11.78v-11.78Z"/>
    <path d="M199.512 289.268h11.78v11.78h-11.78v-11.78Z"/>
    <path d="M210.732 289.268h11.78v11.78h-11.78v-11.78Z"/>
    <path d="M221.951 289.268h11.78v11.78h-11.78v-11.78Z"/>
    <path d="M233.17 289.268h5.891a5.89 5.89 0 0 1 5.89 5.89v5.89h-11.78v-11.78Zm28.33 0a5.89 5.89 0 0 1 5.89 5.89 5.89 5.89 0 0 1-5.89 5.89 5.89 5.89 0 0 1-5.89-5.89 5.89 5.89 0 0 1 5.89-5.89Zm16.549 0h11.78v5.89a5.89 5.89 0 0 1-5.89 5.89 5.89 5.89 0 0 1-5.89-5.89v-5.89Zm28.329 0h5.89v11.78h-5.89a5.89 5.89 0 0 1-5.89-5.89 5.89 5.89 0 0 1 5.89-5.89Z"/>
    <path d="M311.707 289.268h11.78v11.78h-11.78v-11.78Z"/>
    <path d="M322.927 289.268h5.89a5.89 5.89 0 0 1 5.89 5.89v5.89h-11.78v-11.78Zm28.329 0h5.89v11.78h-5.89a5.89 5.89 0 0 1-5.89-5.89 5.89 5.89 0 0 1 5.89-5.89Z"/>
    <path d="M356.585 289.268h11.78v11.78h-11.78v-11.78Z"/>
    <path d="M367.805 289.268h5.89a5.89 5.89 0 0 1 5.89 5.89v5.89h-11.78v-11.78Zm100.975 0h11.781v11.78h-11.78v-11.78Zm-420.45 11.22a5.89 5.89 0 0 1 5.89 5.89v5.89H42.439v-5.89a5.89 5.89 0 0 1 5.89-5.89Zm27.768 0h11.78v11.78h-11.78v-11.78Zm56.097 0h11.78v5.89a5.89 5.89 0 0 1-5.89 5.89 5.89 5.89 0 0 1-5.89-5.89v-5.89Zm22.439 0h11.78v11.78h-11.78v-11.78Zm78.536 0h11.781v5.89a5.89 5.89 0 0 1-5.89 5.89 5.89 5.89 0 0 1-5.89-5.89v-5.89Zm89.757 0h11.78v11.78h-5.89a5.89 5.89 0 0 1-5.89-5.89v-5.89Z"/>
    <path d="M334.146 300.488h5.89a5.89 5.89 0 0 1 5.89 5.89 5.89 5.89 0 0 1-5.89 5.89h-5.89v-11.78Zm33.659 0h11.78v11.78h-11.78v-11.78Z"/>
    <path d="M379.024 300.488h5.89a5.89 5.89 0 0 1 5.89 5.89v5.89h-11.78v-11.78Zm28.33 0a5.89 5.89 0 0 1 5.89 5.89 5.89 5.89 0 0 1-5.89 5.89 5.89 5.89 0 0 1-5.89-5.89 5.89 5.89 0 0 1 5.89-5.89Zm33.658 0h5.89v11.78h-11.78v-5.89a5.89 5.89 0 0 1 5.89-5.89Z"/>
    <path d="M446.341 300.488h5.89a5.89 5.89 0 0 1 5.891 5.89 5.89 5.89 0 0 1-5.89 5.89h-5.89v-11.78Zm22.439 0h11.781v11.78h-11.78v-11.78ZM25.89 311.707h5.89v11.78H20v-5.89a5.89 5.89 0 0 1 5.89-5.89Z"/>
    <path d="M31.22 311.707H43v11.78H31.22v-11.78Z"/>
    <path d="M42.439 311.707h11.78v11.78H42.44v-11.78Z"/>
    <path d="M53.659 311.707h11.78v11.78h-11.78v-11.78Z"/>
    <path d="M64.878 311.707h11.78v11.78h-11.78v-11.78Z"/>
    <path d="M76.098 311.707h11.78v11.78h-11.78v-11.78Z"/>
    <path d="M87.317 311.707h11.78v11.78h-11.78v-11.78Z"/>
    <path d="M98.537 311.707h5.89a5.89 5.89 0 0 1 5.89 5.89 5.89 5.89 0 0 1-5.89 5.89h-5.89v-11.78Zm56.097 0h11.78v5.89a5.89 5.89 0 0 1-5.89 5.89 5.89 5.89 0 0 1-5.89-5.89v-5.89Zm28.329 0h5.89v11.78h-11.78v-5.89a5.89 5.89 0 0 1 5.89-5.89Z"/>
    <path d="M188.293 311.707h5.89a5.89 5.89 0 0 1 5.89 5.89v5.89h-11.78v-11.78Zm28.329 0h5.89v11.78h-11.78v-5.89a5.89 5.89 0 0 1 5.89-5.89Z"/>
    <path d="M221.951 311.707h5.89a5.89 5.89 0 0 1 5.89 5.89v5.89h-11.78v-11.78Zm61.988 0a5.89 5.89 0 0 1 5.89 5.89v5.89h-11.78v-5.89a5.89 5.89 0 0 1 5.89-5.89Zm22.439 0h5.89v11.78h-11.78v-5.89a5.89 5.89 0 0 1 5.89-5.89Z"/>
    <path d="M311.707 311.707h5.89a5.89 5.89 0 0 1 5.89 5.89 5.89 5.89 0 0 1-5.89 5.89h-5.89v-11.78Zm56.098 0h11.78v11.78h-11.78v-11.78Z"/>
    <path d="M379.024 311.707h11.78v11.78h-11.78v-11.78Z"/>
    <path d="M390.244 311.707h5.89a5.89 5.89 0 0 1 5.89 5.89v5.89h-11.78v-11.78Zm28.329 0h5.89v11.78h-5.89a5.89 5.89 0 0 1-5.89-5.89 5.89 5.89 0 0 1 5.89-5.89Z"/>
    <path d="M423.902 311.707h11.78v11.78h-11.78v-11.78Z"/>
    <path d="M435.122 311.707h11.78v11.78h-11.78v-11.78Zm28.329 0h5.89v11.78h-5.89a5.89 5.89 0 0 1-5.89-5.89 5.89 5.89 0 0 1 5.89-5.89Z"/>
    <path d="M468.78 311.707h11.781v5.89a5.89 5.89 0 0 1-5.89 5.89h-5.89v-11.78ZM20 322.927h11.78v5.89a5.89 5.89 0 0 1-5.89 5.89 5.89 5.89 0 0 1-5.89-5.89v-5.89Zm22.439 0h11.78v11.78H42.44v-11.78Z"/>
    <path d="M53.659 322.927h11.78v11.78h-11.78v-11.78Zm22.439 0h11.78v5.89a5.89 5.89 0 0 1-5.89 5.89 5.89 5.89 0 0 1-5.89-5.89v-5.89Zm39.548 0h5.89v11.78h-5.89a5.89 5.89 0 0 1-5.89-5.89 5.89 5.89 0 0 1 5.89-5.89Z"/>
    <path d="M120.976 322.927h11.78v11.78h-11.78v-11.78Z"/>
    <path d="M132.195 322.927h5.89a5.89 5.89 0 0 1 5.89 5.89v5.89h-11.78v-11.78Zm44.878 0h11.78v11.78h-11.78v-11.78Z"/>
    <path d="M188.293 322.927h11.78v11.78h-11.78v-11.78Z"/>
    <path d="M199.512 322.927h11.78v11.78h-11.78v-11.78Z"/>
    <path d="M210.732 322.927h11.78v11.78h-11.78v-11.78Z"/>
    <path d="M221.951 322.927h11.78v11.78h-11.78v-11.78Z"/>
    <path d="M233.17 322.927h11.781v11.78h-11.78v-11.78Z"/>
    <path d="M244.39 322.927h5.89a5.89 5.89 0 0 1 5.89 5.89 5.89 5.89 0 0 1-5.89 5.89h-5.89v-11.78Zm28.33 0h5.89v11.78h-5.89a5.89 5.89 0 0 1-5.89-5.89 5.89 5.89 0 0 1 5.89-5.89Z"/>
    <path d="M278.049 322.927h11.78v11.78h-11.78v-11.78Zm22.439 0h11.78v5.89a5.89 5.89 0 0 1-5.89 5.89 5.89 5.89 0 0 1-5.89-5.89v-5.89Zm28.329 0a5.89 5.89 0 0 1 5.89 5.89 5.89 5.89 0 0 1-5.89 5.89 5.89 5.89 0 0 1-5.89-5.89 5.89 5.89 0 0 1 5.89-5.89Zm33.659 0h5.89v11.78h-5.89a5.89 5.89 0 0 1-5.89-5.89 5.89 5.89 0 0 1 5.89-5.89Z"/>
    <path d="M367.805 322.927h11.78v11.78h-11.78v-11.78Z"/>
    <path d="M379.024 322.927h11.78v11.78h-11.78v-11.78Z"/>
    <path d="M390.244 322.927h11.78v11.78h-11.78v-11.78Z"/>
    <path d="M401.463 322.927h5.89a5.89 5.89 0 0 1 5.89 5.89v5.89h-11.78v-11.78Zm22.439 0h11.78v11.78h-11.78v-11.78Z"/>
    <path d="M435.122 322.927h11.78v11.78h-11.78v-11.78ZM37.11 334.146H43v11.78h-5.89a5.89 5.89 0 0 1-5.89-5.89 5.89 5.89 0 0 1 5.89-5.89Z"/>
    <path d="M42.439 334.146h11.78v11.78H42.44v-11.78Z"/>
    <path d="M53.659 334.146h11.78v11.78h-11.78v-11.78Z"/>
    <path d="M64.878 334.146h5.89a5.89 5.89 0 0 1 5.89 5.89 5.89 5.89 0 0 1-5.89 5.89h-5.89v-11.78Zm28.329 0a5.89 5.89 0 0 1 5.89 5.89 5.89 5.89 0 0 1-5.89 5.89 5.89 5.89 0 0 1-5.89-5.89 5.89 5.89 0 0 1 5.89-5.89Zm38.988 0h11.78v11.78h-5.89a5.89 5.89 0 0 1-5.89-5.89v-5.89Z"/>
    <path d="M143.415 334.146h11.78v11.78h-11.78v-11.78Z"/>
    <path d="M154.634 334.146h5.89a5.89 5.89 0 0 1 5.89 5.89 5.89 5.89 0 0 1-5.89 5.89h-5.89v-11.78Zm22.439 0h11.78v11.78h-11.78v-11.78Zm56.097 0h11.781v5.89a5.89 5.89 0 0 1-5.89 5.89 5.89 5.89 0 0 1-5.89-5.89v-5.89Zm28.33 0a5.89 5.89 0 0 1 5.89 5.89v5.89h-11.78v-5.89a5.89 5.89 0 0 1 5.89-5.89Zm16.549 0h11.78v11.78h-11.78v-11.78Z"/>
    <path d="M289.268 334.146h5.89a5.89 5.89 0 0 1 5.89 5.89v5.89h-11.78v-11.78Zm28.33 0a5.89 5.89 0 0 1 5.89 5.89v5.89h-11.78v-5.89a5.89 5.89 0 0 1 5.89-5.89Zm50.207 0h11.78v11.78h-11.78v-11.78Zm22.439 0h11.78v11.78h-5.89a5.89 5.89 0 0 1-5.89-5.89v-5.89Z"/>
    <path d="M401.463 334.146h11.78v11.78h-11.78v-11.78Z"/>
    <path d="M412.683 334.146h11.78v11.78h-11.78v-11.78Z"/>
    <path d="M423.902 334.146h11.78v11.78h-11.78v-11.78Z"/>
    <path d="M435.122 334.146h11.78v11.78h-11.78v-11.78Zm-353.134 11.22a5.89 5.89 0 0 1 5.89 5.89v5.89h-11.78v-5.89a5.89 5.89 0 0 1 5.89-5.89Zm22.439 0h5.89v11.78h-5.89a5.89 5.89 0 0 1-5.89-5.89 5.89 5.89 0 0 1 5.89-5.89Z"/>
    <path d="M109.756 345.366h5.89a5.89 5.89 0 0 1 5.89 5.89 5.89 5.89 0 0 1-5.89 5.89h-5.89v-11.78Zm61.988 0h5.89v11.78h-11.78v-5.89a5.89 5.89 0 0 1 5.89-5.89Z"/>
    <path d="M177.073 345.366h11.78v11.78h-11.78v-11.78Zm39.549 0a5.89 5.89 0 0 1 5.89 5.89 5.89 5.89 0 0 1-5.89 5.89 5.89 5.89 0 0 1-5.89-5.89 5.89 5.89 0 0 1 5.89-5.89Zm33.658 0h5.89v11.78h-11.78v-5.89a5.89 5.89 0 0 1 5.89-5.89Z"/>
    <path d="M255.61 345.366h11.78v11.78h-11.78v-11.78Z"/>
    <path d="M266.83 345.366h11.78v11.78h-11.78v-11.78Z"/>
    <path d="M278.049 345.366h11.78v11.78h-11.78v-11.78Z"/>
    <path d="M289.268 345.366h11.78v11.78h-11.78v-11.78Zm22.439 0h11.78v5.89a5.89 5.89 0 0 1-5.89 5.89 5.89 5.89 0 0 1-5.89-5.89v-5.89Zm50.769 0h5.89v11.78h-5.89a5.89 5.89 0 0 1-5.89-5.89 5.89 5.89 0 0 1 5.89-5.89Z"/>
    <path d="M367.805 345.366h11.78v5.89a5.89 5.89 0 0 1-5.89 5.89h-5.89v-11.78Zm33.658 0h11.78v11.78h-11.78v-11.78Z"/>
    <path d="M412.683 345.366h11.78v5.89a5.89 5.89 0 0 1-5.89 5.89h-5.89v-11.78Zm22.439 0h11.78v11.78h-11.78v-11.78Z"/>
    <path d="M446.341 345.366h11.781v11.78h-11.78v-11.78Z"/>
    <path d="M457.561 345.366h5.89a5.89 5.89 0 0 1 5.89 5.89v5.89h-11.78v-11.78ZM25.89 356.585a5.89 5.89 0 0 1 5.89 5.89 5.89 5.89 0 0 1-5.89 5.89 5.89 5.89 0 0 1-5.89-5.89 5.89 5.89 0 0 1 5.89-5.89Zm33.659 0h5.89v11.78h-5.89a5.89 5.89 0 0 1-5.89-5.89 5.89 5.89 0 0 1 5.89-5.89Z"/>
    <path d="M64.878 356.585h11.78v11.78h-11.78v-11.78Z"/>
    <path d="M76.098 356.585h11.78v11.78h-11.78v-11.78Z"/>
    <path d="M87.317 356.585h5.89a5.89 5.89 0 0 1 5.89 5.89 5.89 5.89 0 0 1-5.89 5.89h-5.89v-11.78Zm39.549 0h5.89v11.78h-11.78v-5.89a5.89 5.89 0 0 1 5.89-5.89Z"/>
    <path d="M132.195 356.585h5.89a5.89 5.89 0 0 1 5.89 5.89 5.89 5.89 0 0 1-5.89 5.89h-5.89v-11.78Zm33.659 0h11.78v11.78h-5.89a5.89 5.89 0 0 1-5.89-5.89v-5.89Z"/>
    <path d="M177.073 356.585h11.78v11.78h-11.78v-11.78Z"/>
    <path d="M188.293 356.585h11.78v11.78h-11.78v-11.78Z"/>
    <path d="M199.512 356.585h5.89a5.89 5.89 0 0 1 5.89 5.89v5.89h-11.78v-11.78Zm39.549 0h5.89v11.78h-11.78v-5.89a5.89 5.89 0 0 1 5.89-5.89Z"/>
    <path d="M244.39 356.585h11.78v11.78h-11.78v-11.78Z"/>
    <path d="M255.61 356.585h11.78v11.78h-11.78v-11.78Z"/>
    <path d="M266.83 356.585h11.78v11.78h-11.78v-11.78Z"/>
    <path d="M278.049 356.585h11.78v11.78h-11.78v-11.78Z"/>
    <path d="M289.268 356.585h11.78v5.89a5.89 5.89 0 0 1-5.89 5.89h-5.89v-11.78Zm61.988 0a5.89 5.89 0 0 1 5.89 5.89v5.89h-11.78v-5.89a5.89 5.89 0 0 1 5.89-5.89Zm33.659 0h5.89v11.78h-11.78v-5.89a5.89 5.89 0 0 1 5.89-5.89Z"/>
    <path d="M390.244 356.585h11.78v11.78h-11.78v-11.78Z"/>
    <path d="M401.463 356.585h11.78v11.78h-11.78v-11.78Zm33.659 0h11.78v5.89a5.89 5.89 0 0 1-5.89 5.89 5.89 5.89 0 0 1-5.89-5.89v-5.89Zm22.439 0h11.78v11.78h-11.78v-11.78Zm-392.683 11.22h11.78v11.78h-11.78v-11.78Zm39.549 0a5.89 5.89 0 0 1 5.89 5.89v5.89h-11.78v-5.89a5.89 5.89 0 0 1 5.89-5.89Zm16.549 0h11.78v5.89a5.89 5.89 0 0 1-5.89 5.89 5.89 5.89 0 0 1-5.89-5.89v-5.89Zm78.536 0h11.78v11.78h-11.78v-11.78Z"/>
    <path d="M210.732 367.805h11.78v11.78h-11.78v-11.78Z"/>
    <path d="M221.951 367.805h11.78v11.78h-11.78v-11.78Z"/>
    <path d="M233.17 367.805h11.781v5.89a5.89 5.89 0 0 1-5.89 5.89h-5.89v-11.78Zm22.44 0h11.78v5.89a5.89 5.89 0 0 1-5.89 5.89 5.89 5.89 0 0 1-5.89-5.89v-5.89Zm22.439 0h11.78v5.89a5.89 5.89 0 0 1-5.89 5.89 5.89 5.89 0 0 1-5.89-5.89v-5.89Zm28.329 0h5.89v11.78h-5.89a5.89 5.89 0 0 1-5.89-5.89 5.89 5.89 0 0 1 5.89-5.89Z"/>
    <path d="M311.707 367.805h11.78v11.78h-11.78v-11.78Z"/>
    <path d="M322.927 367.805h11.78v11.78h-11.78v-11.78Z"/>
    <path d="M334.146 367.805h11.78v11.78h-11.78v-11.78Z"/>
    <path d="M345.366 367.805h11.78v11.78h-11.78v-11.78Zm33.658 0h11.78v11.78h-11.78v-11.78Zm22.439 0h11.78v11.78h-11.78v-11.78Zm28.33 0a5.89 5.89 0 0 1 5.89 5.89v5.89h-11.78v-5.89a5.89 5.89 0 0 1 5.89-5.89Zm22.439 0h5.89v11.78h-11.78v-5.89a5.89 5.89 0 0 1 5.89-5.89Z"/>
    <path d="M457.561 367.805h11.78v11.78h-11.78v-11.78Z"/>
    <path d="M468.78 367.805h5.89a5.89 5.89 0 0 1 5.891 5.89v5.89h-11.78v-11.78ZM37.11 379.024a5.89 5.89 0 0 1 5.89 5.89 5.89 5.89 0 0 1-5.89 5.89 5.89 5.89 0 0 1-5.89-5.89 5.89 5.89 0 0 1 5.89-5.89Zm22.439 0h5.89v11.78h-5.89a5.89 5.89 0 0 1-5.89-5.89 5.89 5.89 0 0 1 5.89-5.89Z"/>
    <path d="M64.878 379.024h11.78v5.89a5.89 5.89 0 0 1-5.89 5.89h-5.89v-11.78Zm28.329 0h5.89v11.78h-5.89a5.89 5.89 0 0 1-5.89-5.89 5.89 5.89 0 0 1 5.89-5.89Z"/>
    <path d="M98.537 379.024h11.78v5.89a5.89 5.89 0 0 1-5.89 5.89h-5.89v-11.78Zm39.548 0h5.89v11.78h-5.89a5.89 5.89 0 0 1-5.89-5.89 5.89 5.89 0 0 1 5.89-5.89Z"/>
    <path d="M143.415 379.024h11.78v11.78h-11.78v-11.78Z"/>
    <path d="M154.634 379.024h11.78v11.78h-11.78v-11.78Z"/>
    <path d="M165.854 379.024h11.78v11.78h-11.78v-11.78Z"/>
    <path d="M177.073 379.024h5.89a5.89 5.89 0 0 1 5.89 5.89 5.89 5.89 0 0 1-5.89 5.89h-5.89v-11.78Zm22.439 0h11.78v11.78h-11.78v-11.78Z"/>
    <path d="M210.732 379.024h11.78v5.89a5.89 5.89 0 0 1-5.89 5.89h-5.89v-11.78Zm61.988 0a5.89 5.89 0 0 1 5.89 5.89 5.89 5.89 0 0 1-5.89 5.89 5.89 5.89 0 0 1-5.89-5.89 5.89 5.89 0 0 1 5.89-5.89Zm22.439 0a5.89 5.89 0 0 1 5.89 5.89v5.89h-11.78v-5.89a5.89 5.89 0 0 1 5.89-5.89Zm16.548 0h11.78v11.78h-11.78v-11.78Z"/>
    <path d="M322.927 379.024h11.78v5.89a5.89 5.89 0 0 1-5.89 5.89h-5.89v-11.78Zm22.439 0h11.78v11.78h-5.89a5.89 5.89 0 0 1-5.89-5.89v-5.89Z"/>
    <path d="M356.585 379.024h11.78v11.78h-11.78v-11.78Z"/>
    <path d="M367.805 379.024h11.78v11.78h-11.78v-11.78Z"/>
    <path d="M379.024 379.024h11.78v11.78h-11.78v-11.78Z"/>
    <path d="M390.244 379.024h11.78v11.78h-11.78v-11.78Z"/>
    <path d="M401.463 379.024h11.78v11.78h-11.78v-11.78Z"/>
    <path d="M412.683 379.024h11.78v11.78h-11.78v-11.78Z"/>
    <path d="M423.902 379.024h11.78v11.78h-11.78v-11.78Z"/>
    <path d="M435.122 379.024h11.78v11.78h-11.78v-11.78Z"/>
    <path d="M446.341 379.024h11.781v11.78h-11.78v-11.78Z"/>
    <path d="M457.561 379.024h11.78v11.78h-11.78v-11.78Z"/>
    <path d="M468.78 379.024h11.781v11.78h-11.78v-11.78Zm-353.134 11.22a5.89 5.89 0 0 1 5.89 5.89v5.89h-11.78v-5.89a5.89 5.89 0 0 1 5.89-5.89Zm27.769 0h11.78v11.78h-11.78v-11.78Z"/>
    <path d="M154.634 390.244h11.78v11.78h-11.78v-11.78Z"/>
    <path d="M165.854 390.244h11.78v5.89a5.89 5.89 0 0 1-5.89 5.89h-5.89v-11.78Zm33.658 0h11.78v5.89a5.89 5.89 0 0 1-5.89 5.89 5.89 5.89 0 0 1-5.89-5.89v-5.89Zm50.768 0a5.89 5.89 0 0 1 5.89 5.89 5.89 5.89 0 0 1-5.89 5.89 5.89 5.89 0 0 1-5.89-5.89 5.89 5.89 0 0 1 5.89-5.89Zm38.988 0h11.78v5.89a5.89 5.89 0 0 1-5.89 5.89 5.89 5.89 0 0 1-5.89-5.89v-5.89Zm22.439 0h11.78v5.89a5.89 5.89 0 0 1-5.89 5.89 5.89 5.89 0 0 1-5.89-5.89v-5.89Zm28.33 0a5.89 5.89 0 0 1 5.89 5.89v5.89h-11.78v-5.89a5.89 5.89 0 0 1 5.89-5.89Zm16.548 0h11.78v5.89a5.89 5.89 0 0 1-5.89 5.89 5.89 5.89 0 0 1-5.89-5.89v-5.89Zm22.439 0h11.78v11.78h-11.78v-11.78Zm44.878 0h11.78v11.78h-11.78v-11.78Zm44.878 0h11.781v5.89a5.89 5.89 0 0 1-5.89 5.89 5.89 5.89 0 0 1-5.89-5.89v-5.89Zm-359.024 11.219h11.78v5.89a5.89 5.89 0 0 1-5.89 5.89 5.89 5.89 0 0 1-5.89-5.89v-5.89Zm28.329 0h5.89v11.78h-11.78v-5.89a5.89 5.89 0 0 1 5.89-5.89Z"/>
    <path d="M143.415 401.463h11.78v11.78h-11.78v-11.78Z"/>
    <path d="M154.634 401.463h11.78v5.89a5.89 5.89 0 0 1-5.89 5.89h-5.89v-11.78Zm28.329 0a5.89 5.89 0 0 1 5.89 5.89v5.89h-11.78v-5.89a5.89 5.89 0 0 1 5.89-5.89Zm33.659 0h5.89v11.78h-11.78v-5.89a5.89 5.89 0 0 1 5.89-5.89Z"/>
    <path d="M221.951 401.463h5.89a5.89 5.89 0 0 1 5.89 5.89v5.89h-11.78v-11.78Zm50.769 0a5.89 5.89 0 0 1 5.89 5.89v5.89h-11.78v-5.89a5.89 5.89 0 0 1 5.89-5.89Zm61.426 0h11.78v11.78h-5.89a5.89 5.89 0 0 1-5.89-5.89v-5.89Z"/>
    <path d="M345.366 401.463h5.89a5.89 5.89 0 0 1 5.89 5.89 5.89 5.89 0 0 1-5.89 5.89h-5.89v-11.78Zm28.329 0h5.89v11.78h-5.89a5.89 5.89 0 0 1-5.89-5.89 5.89 5.89 0 0 1 5.89-5.89Z"/>
    <path d="M379.024 401.463h11.78v11.78h-11.78v-11.78Zm28.33 0a5.89 5.89 0 0 1 5.89 5.89 5.89 5.89 0 0 1-5.89 5.89 5.89 5.89 0 0 1-5.89-5.89 5.89 5.89 0 0 1 5.89-5.89Zm16.548 0h11.78v11.78h-11.78v-11.78Zm39.549 0a5.89 5.89 0 0 1 5.89 5.89v5.89h-11.78v-5.89a5.89 5.89 0 0 1 5.89-5.89Zm-336.585 11.22h5.89v11.78h-5.89a5.89 5.89 0 0 1-5.89-5.89 5.89 5.89 0 0 1 5.89-5.89Z"/>
    <path d="M132.195 412.683h11.78v11.78h-11.78v-11.78Z"/>
    <path d="M143.415 412.683h11.78v5.89a5.89 5.89 0 0 1-5.89 5.89h-5.89v-11.78Zm33.658 0h11.78v5.89a5.89 5.89 0 0 1-5.89 5.89 5.89 5.89 0 0 1-5.89-5.89v-5.89Zm28.329 0h5.89v11.78h-11.78v-5.89a5.89 5.89 0 0 1 5.89-5.89Z"/>
    <path d="M210.732 412.683h11.78v11.78h-11.78v-11.78Z"/>
    <path d="M221.951 412.683h11.78v11.78h-11.78v-11.78Z"/>
    <path d="M233.17 412.683h11.781v11.78h-11.78v-11.78Z"/>
    <path d="M244.39 412.683h5.89a5.89 5.89 0 0 1 5.89 5.89 5.89 5.89 0 0 1-5.89 5.89h-5.89v-11.78Zm22.44 0h11.78v11.78h-11.78v-11.78Z"/>
    <path d="M278.049 412.683h11.78v11.78h-11.78v-11.78Z"/>
    <path d="M289.268 412.683h11.78v11.78h-11.78v-11.78Z"/>
    <path d="M300.488 412.683h11.78v11.78h-11.78v-11.78Z"/>
    <path d="M311.707 412.683h5.89a5.89 5.89 0 0 1 5.89 5.89v5.89h-11.78v-11.78Zm50.769 0a5.89 5.89 0 0 1 5.89 5.89v5.89h-11.78v-5.89a5.89 5.89 0 0 1 5.89-5.89Zm16.548 0h11.78v11.78h-11.78v-11.78Zm44.878 0h11.78v11.78h-11.78v-11.78Z"/>
    <path d="M435.122 412.683h5.89a5.89 5.89 0 0 1 5.89 5.89v5.89h-11.78v-11.78Zm22.439 0h11.78v11.78h-11.78v-11.78Z"/>
    <path d="M468.78 412.683h5.89a5.89 5.89 0 0 1 5.891 5.89v5.89h-11.78v-11.78Zm-336.585 11.219h11.78v5.89a5.89 5.89 0 0 1-5.89 5.89 5.89 5.89 0 0 1-5.89-5.89v-5.89Zm61.988 0h5.89v11.78h-5.89a5.89 5.89 0 0 1-5.89-5.89 5.89 5.89 0 0 1 5.89-5.89Z"/>
    <path d="M199.512 423.902h11.78v5.89a5.89 5.89 0 0 1-5.89 5.89h-5.89v-11.78Zm22.439 0h11.78v11.78h-5.89a5.89 5.89 0 0 1-5.89-5.89v-5.89Z"/>
    <path d="M233.17 423.902h11.781v5.89a5.89 5.89 0 0 1-5.89 5.89h-5.89v-11.78Zm33.66 0h11.78v11.78h-11.78v-11.78Z"/>
    <path d="M278.049 423.902h11.78v11.78h-11.78v-11.78Zm33.658 0h11.78v11.78h-11.78v-11.78Zm28.33 0a5.89 5.89 0 0 1 5.89 5.89 5.89 5.89 0 0 1-5.89 5.89 5.89 5.89 0 0 1-5.89-5.89 5.89 5.89 0 0 1 5.89-5.89Zm16.548 0h11.78v11.78h-11.78v-11.78Zm22.439 0h11.78v11.78h-11.78v-11.78Z"/>
    <path d="M390.244 423.902h11.78v11.78h-11.78v-11.78Z"/>
    <path d="M401.463 423.902h11.78v11.78h-11.78v-11.78Z"/>
    <path d="M412.683 423.902h11.78v11.78h-11.78v-11.78Z"/>
    <path d="M423.902 423.902h11.78v11.78h-11.78v-11.78Z"/>
    <path d="M435.122 423.902h11.78v11.78h-11.78v-11.78Z"/>
    <path d="M446.341 423.902h11.781v11.78h-11.78v-11.78Z"/>
    <path d="M457.561 423.902h11.78v11.78h-11.78v-11.78Z"/>
    <path d="M468.78 423.902h11.781v11.78h-11.78v-11.78Zm-353.134 11.22a5.89 5.89 0 0 1 5.89 5.89v5.89h-11.78v-5.89a5.89 5.89 0 0 1 5.89-5.89Zm100.976 0a5.89 5.89 0 0 1 5.89 5.89v5.89h-11.78v-5.89a5.89 5.89 0 0 1 5.89-5.89Zm50.208 0h11.78v11.78h-5.89a5.89 5.89 0 0 1-5.89-5.89v-5.89Z"/>
    <path d="M278.049 435.122h11.78v11.78h-11.78v-11.78Zm28.329 0h5.89v11.78h-11.78v-5.89a5.89 5.89 0 0 1 5.89-5.89Z"/>
    <path d="M311.707 435.122h11.78v11.78h-11.78v-11.78Z"/>
    <path d="M322.927 435.122h5.89a5.89 5.89 0 0 1 5.89 5.89 5.89 5.89 0 0 1-5.89 5.89h-5.89v-11.78Zm33.658 0h11.78v11.78h-11.78v-11.78Zm22.439 0h11.78v11.78h-11.78v-11.78Zm44.878 0h11.78v5.89a5.89 5.89 0 0 1-5.89 5.89 5.89 5.89 0 0 1-5.89-5.89v-5.89Zm22.439 0h11.781v5.89a5.89 5.89 0 0 1-5.89 5.89 5.89 5.89 0 0 1-5.89-5.89v-5.89Zm22.439 0h11.781v11.78h-11.78v-11.78Zm-359.024 11.219h11.78v11.781h-5.89a5.89 5.89 0 0 1-5.89-5.89v-5.89Z"/>
    <path d="M120.976 446.341h11.78v11.781h-11.78v-11.78Z"/>
    <path d="M132.195 446.341h5.89a5.89 5.89 0 0 1 5.89 5.89v5.891h-11.78v-11.78Zm39.549 0a5.89 5.89 0 0 1 5.89 5.89v5.891h-11.78v-5.89a5.89 5.89 0 0 1 5.89-5.89Zm22.439 0a5.89 5.89 0 0 1 5.89 5.89 5.89 5.89 0 0 1-5.89 5.891 5.89 5.89 0 0 1-5.89-5.89 5.89 5.89 0 0 1 5.89-5.89Zm16.549 0h11.78v11.781h-5.89a5.89 5.89 0 0 1-5.89-5.89v-5.89Z"/>
    <path d="M221.951 446.341h11.78v11.781h-11.78v-11.78Z"/>
    <path d="M233.17 446.341h5.891a5.89 5.89 0 0 1 5.89 5.89v5.891h-11.78v-11.78Zm44.879 0h11.78v11.781h-11.78v-11.78Zm22.439 0h11.78v11.781h-5.89a5.89 5.89 0 0 1-5.89-5.89v-5.89Z"/>
    <path d="M311.707 446.341h11.78v5.89a5.89 5.89 0 0 1-5.89 5.891h-5.89v-11.78Zm39.549 0h5.89v11.781h-5.89a5.89 5.89 0 0 1-5.89-5.89 5.89 5.89 0 0 1 5.89-5.89Z"/>
    <path d="M356.585 446.341h11.78v11.781h-11.78v-11.78Z"/>
    <path d="M367.805 446.341h11.78v11.781h-11.78v-11.78Z"/>
    <path d="M379.024 446.341h11.78v11.781h-11.78v-11.78Zm39.549 0a5.89 5.89 0 0 1 5.89 5.89 5.89 5.89 0 0 1-5.89 5.891 5.89 5.89 0 0 1-5.89-5.89 5.89 5.89 0 0 1 5.89-5.89Zm50.207 0h11.781v5.89a5.89 5.89 0 0 1-5.89 5.891 5.89 5.89 0 0 1-5.89-5.89v-5.89Zm-347.804 11.22h11.78v11.78h-11.78v-11.78Z"/>
    <path d="M132.195 457.561h11.78v5.89a5.89 5.89 0 0 1-5.89 5.89h-5.89v-11.78Zm33.659 0h11.78v5.89a5.89 5.89 0 0 1-5.89 5.89 5.89 5.89 0 0 1-5.89-5.89v-5.89Zm67.316 0h11.781v11.78h-5.89a5.89 5.89 0 0 1-5.89-5.89v-5.89Z"/>
    <path d="M244.39 457.561h11.78v11.78h-11.78v-11.78Z"/>
    <path d="M255.61 457.561h11.78v11.78h-11.78v-11.78Z"/>
    <path d="M266.83 457.561h11.78v11.78h-11.78v-11.78Z"/>
    <path d="M278.049 457.561h11.78v11.78h-11.78v-11.78Z"/>
    <path d="M289.268 457.561h5.89a5.89 5.89 0 0 1 5.89 5.89v5.89h-11.78v-11.78Zm39.549 0a5.89 5.89 0 0 1 5.89 5.89 5.89 5.89 0 0 1-5.89 5.89 5.89 5.89 0 0 1-5.89-5.89 5.89 5.89 0 0 1 5.89-5.89Zm27.768 0h11.78v11.78h-11.78v-11.78Zm22.439 0h11.78v11.78h-11.78v-11.78Zm28.33 0a5.89 5.89 0 0 1 5.89 5.89 5.89 5.89 0 0 1-5.89 5.89 5.89 5.89 0 0 1-5.89-5.89 5.89 5.89 0 0 1 5.89-5.89Zm22.439 0a5.89 5.89 0 0 1 5.89 5.89 5.89 5.89 0 0 1-5.89 5.89 5.89 5.89 0 0 1-5.89-5.89 5.89 5.89 0 0 1 5.89-5.89Zm33.658 0a5.89 5.89 0 0 1 5.89 5.89v5.89h-11.78v-5.89a5.89 5.89 0 0 1 5.89-5.89ZM120.976 468.78h11.78v5.89a5.89 5.89 0 0 1-5.89 5.891 5.89 5.89 0 0 1-5.89-5.89v-5.89Zm39.548 0a5.89 5.89 0 0 1 5.89 5.89 5.89 5.89 0 0 1-5.89 5.891 5.89 5.89 0 0 1-5.89-5.89 5.89 5.89 0 0 1 5.89-5.89Zm22.439 0a5.89 5.89 0 0 1 5.89 5.89 5.89 5.89 0 0 1-5.89 5.891 5.89 5.89 0 0 1-5.89-5.89 5.89 5.89 0 0 1 5.89-5.89Zm22.439 0h5.89v11.781h-5.89a5.89 5.89 0 0 1-5.89-5.89 5.89 5.89 0 0 1 5.89-5.89Z"/>
    <path d="M210.732 468.78h11.78v11.781h-11.78v-11.78Z"/>
    <path d="M221.951 468.78h5.89a5.89 5.89 0 0 1 5.89 5.89 5.89 5.89 0 0 1-5.89 5.891h-5.89v-11.78Zm22.439 0h11.78v5.89a5.89 5.89 0 0 1-5.89 5.891 5.89 5.89 0 0 1-5.89-5.89v-5.89Zm22.44 0h11.78v5.89a5.89 5.89 0 0 1-5.89 5.891 5.89 5.89 0 0 1-5.89-5.89v-5.89Zm22.438 0h11.78v11.781h-5.89a5.89 5.89 0 0 1-5.89-5.89v-5.89Z"/>
    <path d="M300.488 468.78h11.78v11.781h-11.78v-11.78Z"/>
    <path d="M311.707 468.78h5.89a5.89 5.89 0 0 1 5.89 5.89 5.89 5.89 0 0 1-5.89 5.891h-5.89v-11.78Zm44.878 0h11.78v5.89a5.89 5.89 0 0 1-5.89 5.891 5.89 5.89 0 0 1-5.89-5.89v-5.89Zm22.439 0h11.78v11.781h-5.89a5.89 5.89 0 0 1-5.89-5.89v-5.89Z"/>
    <path d="M390.244 468.78h5.89a5.89 5.89 0 0 1 5.89 5.89 5.89 5.89 0 0 1-5.89 5.891h-5.89v-11.78Zm50.768 0h5.89v11.781h-5.89a5.89 5.89 0 0 1-5.89-5.89 5.89 5.89 0 0 1 5.89-5.89Z"/>
    <path d="M446.341 468.78h11.781v11.781h-11.78v-11.78Z"/>
    <path d="M457.561 468.78h11.78v5.89a5.89 5.89 0 0 1-5.89 5.891h-5.89v-11.78ZM20 30v58.537a10 10 0 0 0 10 10h58.537a10 10 0 0 0 10-10V30a10 10 0 0 0-10-10H30a10 10 0 0 0-10 10Zm57.317 57.317H41.22a10 10 0 0 1-10-10V41.22a10 10 0 0 1 10-10h36.097a10 10 0 0 1 10 10v36.097a10 10 0 0 1-10 10zM20 411.463V470a10 10 0 0 0 10 10h58.537a10 10 0 0 0 10-10v-58.537a10 10 0 0 0-10-10H30a10 10 0 0 0-10 10Zm57.317 57.317H41.22a10 10 0 0 1-10-10v-36.097a10 10 0 0 1 10-10h36.097a10 10 0 0 1 10 10v36.097a10 10 0 0 1-10 10zM401.463 30v58.537a10 10 0 0 0 10 10H470a10 10 0 0 0 10-10V30a10 10 0 0 0-10-10h-58.537a10 10 0 0 0-10 10Zm57.317 57.317h-36.097a10 10 0 0 1-10-10V41.22a10 10 0 0 1 10-10h36.097a10 10 0 0 1 10 10v36.097a10 10 0 0 1-10 10z"/>
    <path d="M42.439 52.439v13.659a10 10 0 0 0 10 10h13.659a10 10 0 0 0 10-10V52.439a10 10 0 0 0-10-10H52.439a10 10 0 0 0-10 10Zm381.463 0v13.659a10 10 0 0 0 10 10h13.659a10 10 0 0 0 10-10V52.439a10 10 0 0 0-10-10h-13.659a10 10 0 0 0-10 10ZM42.439 433.902v13.659a10 10 0 0 0 10 10h13.659a10 10 0 0 0 10-10v-13.659a10 10 0 0 0-10-10H52.439a10 10 0 0 0-10 10Z"/>
</svg>